<?xml version="1.0" encoding="utf-8"?>
<!-- Generator: Adobe Illustrator 21.0.2, SVG Export Plug-In . SVG Version: 6.00 Build 0)  -->
<svg version="1.1" id="Layer_1" xmlns="http://www.w3.org/2000/svg" xmlns:xlink="http://www.w3.org/1999/xlink" x="0px" y="0px"
	 viewBox="0 0 1024 300" style="enable-background:new 0 0 1024 300;" xml:space="preserve">
<style type="text/css">
	.st0{fill:#086A87;}
	.st1{fill:none;stroke:#086A87;stroke-width:1.7627;stroke-miterlimit:10;}
	.st2{fill:#FF6633;}
	.st3{clip-path:url(#SVGID_2_);fill:#F7F7F7;}
	.st4{clip-path:url(#SVGID_2_);}
	.st5{fill:#FFFFFF;}
	.st6{fill:none;stroke:#FFFFFF;stroke-width:0.7396;stroke-miterlimit:10;}
	.st7{fill:#33CCCC;}
	.st8{fill:none;stroke:#086A87;stroke-width:0.6408;stroke-miterlimit:10;}
	.st9{clip-path:url(#SVGID_2_);fill:#086A87;}
	.st10{fill:none;stroke:#FFFFFF;stroke-width:0.3947;stroke-miterlimit:10;}
	.st11{clip-path:url(#SVGID_2_);fill:#FFFFFF;}
	.st12{clip-path:url(#SVGID_2_);fill:#33CCCC;}
	.st13{clip-path:url(#SVGID_4_);}
	.st14{fill:none;stroke:#FFFFFF;stroke-width:1.265;stroke-linecap:round;stroke-linejoin:round;stroke-miterlimit:10;}
	.st15{clip-path:url(#SVGID_6_);}
	.st16{clip-path:url(#SVGID_8_);fill:none;stroke:#FFFFFF;stroke-width:0.5521;stroke-miterlimit:10;}
	.st17{opacity:9.000000e-02;clip-path:url(#SVGID_2_);}
	.st18{opacity:9.000000e-02;}
	.st19{clip-path:url(#SVGID_10_);}
	.st20{fill:none;stroke:#FFFFFF;stroke-width:0.7558;stroke-miterlimit:10;}
	.st21{fill:none;stroke:#086A87;stroke-width:0.3486;stroke-miterlimit:10;}
	.st22{fill:#FFFFFF;stroke:#33CCCC;stroke-width:0.6885;stroke-linecap:round;stroke-linejoin:round;stroke-miterlimit:10;}
	.st23{fill:#FFFFFF;stroke:#086A87;stroke-width:0.6732;stroke-linecap:round;stroke-linejoin:round;stroke-miterlimit:10;}
	.st24{fill:none;}
	.st25{fill:none;stroke:#33CCCC;stroke-width:0.7007;stroke-linecap:round;stroke-linejoin:round;stroke-miterlimit:10;}
	.st26{clip-path:url(#SVGID_2_);fill:#FF6633;}
	.st27{fill:#F7F7F7;}
	.st28{clip-path:url(#SVGID_12_);fill:#F7F7F7;}
	.st29{clip-path:url(#SVGID_12_);}
	.st30{opacity:9.000000e-02;clip-path:url(#SVGID_12_);}
	.st31{clip-path:url(#SVGID_14_);}
	.st32{clip-path:url(#SVGID_12_);fill:#086A87;}
	.st33{clip-path:url(#SVGID_12_);fill:#33CCCC;}
	.st34{fill:none;stroke:#FFFFFF;stroke-width:0.2793;stroke-miterlimit:10;}
	.st35{clip-path:url(#SVGID_16_);}
	.st36{clip-path:url(#SVGID_12_);fill:#FFFFFF;}
	.st37{fill:#087F9B;stroke:#FFFFFF;stroke-width:0.5;stroke-miterlimit:10;}
	.st38{fill:none;stroke:#FFFFFF;stroke-width:0.3644;stroke-miterlimit:10;}
	.st39{fill:none;stroke:#FFFFFF;stroke-width:0.5;stroke-miterlimit:10;}
	.st40{clip-path:url(#SVGID_18_);}
	.st41{clip-path:url(#SVGID_20_);fill:none;stroke:#FFFFFF;stroke-width:0.5521;stroke-miterlimit:10;}
	.st42{fill:#666666;}
	.st43{fill:none;stroke:#666666;stroke-width:0.7396;stroke-miterlimit:10;}
	.st44{fill:#FF6633;stroke:#FFFFFF;stroke-width:1.4054;stroke-miterlimit:10;}
	.st45{fill:none;stroke:#FFFFFF;stroke-width:0.3121;stroke-miterlimit:10;}
	.st46{clip-path:url(#SVGID_12_);fill:#FF6633;}
	.st47{clip-path:url(#SVGID_12_);fill:none;}
</style>
<g>
	<defs>
		<rect id="SVGID_1_" x="1203" y="28.1" width="360" height="561.4"/>
	</defs>
	<clipPath id="SVGID_2_">
		<use xlink:href="#SVGID_1_"  style="overflow:visible;"/>
	</clipPath>
</g>
<g>
	<defs>
		<rect id="SVGID_11_" width="1024" height="300"/>
	</defs>
	<clipPath id="SVGID_4_">
		<use xlink:href="#SVGID_11_"  style="overflow:visible;"/>
	</clipPath>
	<rect style="clip-path:url(#SVGID_4_);fill:#F7F7F7;" width="1024" height="300"/>
	<g class="st13">
		<rect x="762.5" y="207.4" class="st5" width="11.3" height="266.4"/>
		<rect x="748.6" y="207.4" class="st5" width="11.3" height="266.4"/>
		<rect x="734.7" y="207.4" class="st5" width="11.3" height="266.4"/>
		<rect x="726.4" y="207.4" class="st5" width="5.6" height="266.4"/>
		<rect x="812.6" y="207.4" class="st5" width="5.6" height="266.4"/>
		<rect x="892.3" y="207.4" class="st5" width="5.6" height="266.4"/>
		<rect x="886.5" y="207.4" class="st5" width="2.8" height="266.4"/>
		<rect x="776.6" y="207.4" class="st5" width="3.1" height="266.4"/>
		<rect x="781.4" y="207.4" class="st5" width="3.1" height="266.4"/>
		<rect x="786.2" y="207.4" class="st5" width="3.1" height="266.4"/>
		<rect x="791" y="207.4" class="st5" width="3.1" height="266.4"/>
		<rect x="795.8" y="207.4" class="st5" width="3.1" height="266.4"/>
		<rect x="800.6" y="207.4" class="st5" width="3.1" height="266.4"/>
		<rect x="805.4" y="207.4" class="st5" width="3.1" height="266.4"/>
		<rect x="821.6" y="207.4" class="st5" width="18.3" height="266.4"/>
		<rect x="843.4" y="207.4" class="st5" width="18.3" height="266.4"/>
		<rect x="865.2" y="207.4" class="st5" width="18.3" height="266.4"/>
	</g>
	<g class="st13">
		<g>
			<path class="st6" d="M170,149.5c2.1,0,3.8,1.7,3.8,3.8c0,2-1.7,3.7-3.8,3.7c-2.1,0-3.8-1.7-3.8-3.7
				C166.2,151.2,167.9,149.5,170,149.5z M166.9,183.3v-22.6h6.1v22.6H166.9z"/>
			<path class="st6" d="M180,183.3v-32.6h20.4v6h-14.1v7.4h12.7v5.7h-12.7v7.5h14.1v6H180z"/>
			<path class="st6" d="M236.9,183.3v-22.8l-9.4,22.8h-5.3l-9.4-22.7v22.7h-6.1v-32.6h8.4l9.8,23.5l9.6-23.5h8.6v32.6H236.9z"/>
			<path class="st6" d="M270,175.9h-13.2l-2.7,7.4h-6.7l12.5-32.6h7.4l12.4,32.6h-6.9L270,175.9z M258.8,170.1h9l-4.5-12.3
				L258.8,170.1z"/>
		</g>
		<rect x="150.4" y="156.6" class="st27" width="145" height="27.6"/>
		<g>
			<path class="st6" d="M170,159.4c2.1,0,3.8,1.7,3.8,3.8c0,2-1.7,3.7-3.8,3.7c-2.1,0-3.8-1.7-3.8-3.7
				C166.2,161.1,167.9,159.4,170,159.4z M166.9,193.3v-22.6h6.1v22.6H166.9z"/>
			<path class="st6" d="M180,193.3v-32.6h20.4v6h-14.1v7.4h12.7v5.7h-12.7v7.5h14.1v6H180z"/>
			<path class="st6" d="M236.9,193.3v-22.8l-9.4,22.8h-5.3l-9.4-22.7v22.7h-6.1v-32.6h8.4l9.8,23.5l9.6-23.5h8.6v32.6H236.9z"/>
			<path class="st6" d="M270,185.8h-13.2l-2.7,7.4h-6.7l12.5-32.6h7.4l12.4,32.6h-6.9L270,185.8z M258.8,180h9l-4.5-12.3L258.8,180z
				"/>
		</g>
		<rect x="150.4" y="172.3" class="st27" width="145" height="27.6"/>
		<g>
			<path class="st6" d="M170,174.8c2.1,0,3.8,1.7,3.8,3.8c0,2-1.7,3.7-3.8,3.7c-2.1,0-3.8-1.7-3.8-3.7
				C166.2,176.5,167.9,174.8,170,174.8z M166.9,208.6V186h6.1v22.6H166.9z"/>
			<path class="st6" d="M180,208.6v-32.6h20.4v6h-14.1v7.4h12.7v5.7h-12.7v7.5h14.1v6H180z"/>
			<path class="st6" d="M236.9,208.6v-22.8l-9.4,22.8h-5.3l-9.4-22.7v22.7h-6.1v-32.6h8.4l9.8,23.5l9.6-23.5h8.6v32.6H236.9z"/>
			<path class="st6" d="M270,201.2h-13.2l-2.7,7.4h-6.7l12.5-32.6h7.4l12.4,32.6h-6.9L270,201.2z M258.8,195.4h9l-4.5-12.3
				L258.8,195.4z"/>
		</g>
		<rect x="150.4" y="191.7" class="st27" width="145" height="27.6"/>
		<g>
			<path class="st6" d="M170,194.6c2.1,0,3.8,1.7,3.8,3.8c0,2-1.7,3.7-3.8,3.7c-2.1,0-3.8-1.7-3.8-3.7
				C166.2,196.3,167.9,194.6,170,194.6z M166.9,228.4v-22.6h6.1v22.6H166.9z"/>
			<path class="st6" d="M180,228.4v-32.6h20.4v6h-14.1v7.4h12.7v5.7h-12.7v7.5h14.1v6H180z"/>
			<path class="st6" d="M236.9,228.4v-22.8l-9.4,22.8h-5.3l-9.4-22.7v22.7h-6.1v-32.6h8.4l9.8,23.5l9.6-23.5h8.6v32.6H236.9z"/>
			<path class="st6" d="M270,221h-13.2l-2.7,7.4h-6.7l12.5-32.6h7.4l12.4,32.6h-6.9L270,221z M258.8,215.2h9l-4.5-12.3L258.8,215.2z
				"/>
		</g>
		<rect x="150.4" y="215.1" class="st27" width="145" height="27.6"/>
		<g>
			<path class="st6" d="M170,217.9c2.1,0,3.8,1.7,3.8,3.8c0,2-1.7,3.7-3.8,3.7c-2.1,0-3.8-1.7-3.8-3.7
				C166.2,219.6,167.9,217.9,170,217.9z M166.9,251.7v-22.6h6.1v22.6H166.9z"/>
			<path class="st6" d="M180,251.7v-32.6h20.4v6h-14.1v7.4h12.7v5.7h-12.7v7.5h14.1v6H180z"/>
			<path class="st6" d="M236.9,251.7v-22.8l-9.4,22.8h-5.3l-9.4-22.7v22.7h-6.1v-32.6h8.4l9.8,23.5l9.6-23.5h8.6v32.6H236.9z"/>
			<path class="st6" d="M270,244.3h-13.2l-2.7,7.4h-6.7l12.5-32.6h7.4l12.4,32.6h-6.9L270,244.3z M258.8,238.5h9l-4.5-12.3
				L258.8,238.5z"/>
		</g>
		<rect x="150.4" y="241.6" class="st27" width="145" height="40.7"/>
		<g>
			<path class="st6" d="M170,244.5c2.1,0,3.8,1.7,3.8,3.8c0,2-1.7,3.7-3.8,3.7c-2.1,0-3.8-1.7-3.8-3.7
				C166.2,246.2,167.9,244.5,170,244.5z M166.9,278.3v-22.6h6.1v22.6H166.9z"/>
			<path class="st6" d="M180,278.3v-32.6h20.4v6h-14.1v7.4h12.7v5.7h-12.7v7.5h14.1v6H180z"/>
			<path class="st6" d="M236.9,278.3v-22.8l-9.4,22.8h-5.3l-9.4-22.7v22.7h-6.1v-32.6h8.4l9.8,23.5l9.6-23.5h8.6v32.6H236.9z"/>
			<path class="st6" d="M270,270.8h-13.2l-2.7,7.4h-6.7l12.5-32.6h7.4l12.4,32.6h-6.9L270,270.8z M258.8,265h9l-4.5-12.3L258.8,265z
				"/>
		</g>
		<rect x="150.4" y="270.8" class="st27" width="145" height="27.6"/>
		<g>
			<path class="st5" d="M170,273.7c2.1,0,3.8,1.7,3.8,3.8c0,2-1.7,3.7-3.8,3.7c-2.1,0-3.8-1.7-3.8-3.7
				C166.2,275.4,167.9,273.7,170,273.7z"/>
			<rect x="166.9" y="284.9" class="st5" width="6.1" height="22.6"/>
			<path class="st5" d="M180,307.5v-32.6h20.4v6h-14.1v7.4h12.7v5.7h-12.7v7.5h14.1v6H180z"/>
			<path class="st5" d="M236.9,307.5v-22.8l-9.4,22.8h-5.3l-9.4-22.7v22.7h-6.1v-32.6h8.4l9.8,23.5l9.6-23.5h8.6v32.6H236.9z"/>
			<path class="st5" d="M270,300h-13.2l-2.7,7.4h-6.7l12.5-32.6h7.4l12.4,32.6h-6.9L270,300z M258.8,294.2h9l-4.5-12.3L258.8,294.2z
				"/>
		</g>
	</g>
	<g class="st13">
		
			<rect x="-116.8" y="-5.1" transform="matrix(0.6815 0.7318 -0.7318 0.6815 113.3382 146.9452)" class="st5" width="9.2" height="417.5"/>
		
			<rect x="-110.5" y="1.7" transform="matrix(0.6815 0.7318 -0.7318 0.6815 120.2637 144.5004)" class="st7" width="9.2" height="417.5"/>
		
			<rect x="-104.2" y="8.4" transform="matrix(0.6815 0.7318 -0.7318 0.6815 127.1892 142.0556)" class="st5" width="9.2" height="417.5"/>
		
			<rect x="-97.9" y="15.2" transform="matrix(0.6815 0.7318 -0.7318 0.6815 134.1147 139.6108)" class="st7" width="9.2" height="417.5"/>
		
			<rect x="-91.7" y="21.9" transform="matrix(0.6815 0.7318 -0.7318 0.6815 141.0401 137.166)" class="st5" width="9.2" height="417.5"/>
		
			<rect x="-85.4" y="28.6" transform="matrix(0.6815 0.7318 -0.7318 0.6815 147.9656 134.7212)" class="st7" width="9.2" height="417.5"/>
		
			<rect x="-79.1" y="35.4" transform="matrix(0.6815 0.7318 -0.7318 0.6815 154.8911 132.2764)" class="st5" width="9.2" height="417.5"/>
		
			<rect x="-72.9" y="42.1" transform="matrix(0.6815 0.7318 -0.7318 0.6815 161.8166 129.8316)" class="st7" width="9.2" height="417.5"/>
		
			<rect x="-66.6" y="48.8" transform="matrix(0.6815 0.7318 -0.7318 0.6815 168.742 127.3868)" class="st5" width="9.2" height="417.5"/>
		
			<rect x="-60.3" y="55.6" transform="matrix(0.6815 0.7318 -0.7318 0.6815 175.6675 124.942)" class="st7" width="9.2" height="417.5"/>
		
			<rect x="-54" y="62.3" transform="matrix(0.6815 0.7318 -0.7318 0.6815 182.593 122.4972)" class="st5" width="9.2" height="417.5"/>
		
			<rect x="-47.8" y="69" transform="matrix(0.6815 0.7318 -0.7318 0.6815 189.5185 120.0524)" class="st7" width="9.2" height="417.5"/>
		
			<rect x="-41.5" y="75.8" transform="matrix(0.6815 0.7318 -0.7318 0.6815 196.444 117.6076)" class="st5" width="9.2" height="417.5"/>
		
			<rect x="-35.2" y="82.5" transform="matrix(0.6815 0.7318 -0.7318 0.6815 203.3694 115.1628)" class="st7" width="9.2" height="417.5"/>
		
			<rect x="-29" y="89.2" transform="matrix(0.6815 0.7318 -0.7318 0.6815 210.2949 112.718)" class="st5" width="9.2" height="417.5"/>
		
			<rect x="-22.7" y="96" transform="matrix(0.6815 0.7318 -0.7318 0.6815 217.2204 110.2732)" class="st7" width="9.2" height="417.5"/>
		
			<rect x="-16.4" y="102.7" transform="matrix(0.6815 0.7318 -0.7318 0.6815 224.1459 107.8284)" class="st5" width="9.2" height="417.5"/>
		
			<rect x="-10.1" y="109.4" transform="matrix(0.6815 0.7318 -0.7318 0.6815 231.0713 105.3836)" class="st7" width="9.2" height="417.5"/>
		
			<rect x="-3.9" y="116.2" transform="matrix(0.6815 0.7318 -0.7318 0.6815 237.9968 102.9388)" class="st5" width="9.2" height="417.5"/>
		
			<rect x="2.4" y="122.9" transform="matrix(0.6815 0.7318 -0.7318 0.6815 244.9223 100.494)" class="st7" width="9.2" height="417.5"/>
		
			<rect x="8.7" y="129.6" transform="matrix(0.6815 0.7318 -0.7318 0.6815 251.8478 98.0492)" class="st5" width="9.2" height="417.5"/>
		
			<rect x="14.9" y="136.4" transform="matrix(0.6815 0.7318 -0.7318 0.6815 258.7733 95.6044)" class="st7" width="9.2" height="417.5"/>
	</g>
	<g style="opacity:9.000000e-02;clip-path:url(#SVGID_4_);">
		<defs>
			<path id="SVGID_13_" class="st18" d="M722.2-0.2c0,0,23.4,4.2,27.3,25.1c3.9,20.9-7.4,42,21.1,32.8c28.5-9.2,14.4,27.6,8.6,27.6
				s-5.8,12.2,0,9.2c5.8-3.1,12.4-2.8,8.6,9.2c-3,9.2,67.1,10.7,111.6-20.4c19.2-13.4,30.5-35.5,30.5-59V-2.1H721.9L722.2-0.2z"/>
		</defs>
		<clipPath id="SVGID_6_">
			<use xlink:href="#SVGID_13_"  style="overflow:visible;"/>
		</clipPath>
		<g class="st15">
			<g>
				<g>
					<circle class="st7" cx="822" cy="2.5" r="2.8"/>
					<circle class="st7" cx="830.6" cy="2.5" r="2.8"/>
					<circle class="st7" cx="839.2" cy="2.5" r="2.8"/>
					<circle class="st7" cx="847.7" cy="2.5" r="2.8"/>
					<circle class="st7" cx="856.3" cy="2.5" r="2.8"/>
					<circle class="st7" cx="864.9" cy="2.5" r="2.8"/>
					<circle class="st7" cx="873.5" cy="2.5" r="2.8"/>
					<circle class="st7" cx="882" cy="2.5" r="2.8"/>
					<circle class="st7" cx="890.6" cy="2.5" r="2.8"/>
					<circle class="st7" cx="899.2" cy="2.5" r="2.8"/>
					<circle class="st7" cx="907.7" cy="2.5" r="2.8"/>
					<circle class="st7" cx="916.3" cy="2.5" r="2.8"/>
					<circle class="st7" cx="924.9" cy="2.5" r="2.8"/>
				</g>
				<g>
					<circle class="st7" cx="822" cy="11.7" r="2.8"/>
					<circle class="st7" cx="830.6" cy="11.7" r="2.8"/>
					<circle class="st7" cx="839.2" cy="11.7" r="2.8"/>
					<circle class="st7" cx="847.7" cy="11.7" r="2.8"/>
					<circle class="st7" cx="856.3" cy="11.7" r="2.8"/>
					<circle class="st7" cx="864.9" cy="11.7" r="2.8"/>
					<circle class="st7" cx="873.5" cy="11.7" r="2.8"/>
					<circle class="st7" cx="882" cy="11.7" r="2.8"/>
					<circle class="st7" cx="890.6" cy="11.7" r="2.8"/>
					<circle class="st7" cx="899.2" cy="11.7" r="2.8"/>
					<circle class="st7" cx="907.7" cy="11.7" r="2.8"/>
					<circle class="st7" cx="916.3" cy="11.7" r="2.8"/>
					<circle class="st7" cx="924.9" cy="11.7" r="2.8"/>
				</g>
				<g>
					<circle class="st7" cx="822" cy="20.9" r="2.8"/>
					<circle class="st7" cx="830.6" cy="20.9" r="2.8"/>
					<circle class="st7" cx="839.2" cy="20.9" r="2.8"/>
					<circle class="st7" cx="847.7" cy="20.9" r="2.8"/>
					<circle class="st7" cx="856.3" cy="20.9" r="2.8"/>
					<circle class="st7" cx="864.9" cy="20.9" r="2.8"/>
					<circle class="st7" cx="873.5" cy="20.9" r="2.8"/>
					<circle class="st7" cx="882" cy="20.9" r="2.8"/>
					<circle class="st7" cx="890.6" cy="20.9" r="2.8"/>
					<circle class="st7" cx="899.2" cy="20.9" r="2.8"/>
					<circle class="st7" cx="907.7" cy="20.9" r="2.8"/>
					<circle class="st7" cx="916.3" cy="20.9" r="2.8"/>
					<circle class="st7" cx="924.9" cy="20.9" r="2.8"/>
				</g>
				<g>
					<circle class="st7" cx="822" cy="30.1" r="2.8"/>
					<circle class="st7" cx="830.6" cy="30.1" r="2.8"/>
					<circle class="st7" cx="839.2" cy="30.1" r="2.8"/>
					<circle class="st7" cx="847.7" cy="30.1" r="2.8"/>
					<circle class="st7" cx="856.3" cy="30.1" r="2.8"/>
					<circle class="st7" cx="864.9" cy="30.1" r="2.8"/>
					<circle class="st7" cx="873.5" cy="30.1" r="2.8"/>
					<circle class="st7" cx="882" cy="30.1" r="2.8"/>
					<circle class="st7" cx="890.6" cy="30.1" r="2.8"/>
					<circle class="st7" cx="899.2" cy="30.1" r="2.8"/>
					<circle class="st7" cx="907.7" cy="30.1" r="2.8"/>
					<circle class="st7" cx="916.3" cy="30.1" r="2.8"/>
					<circle class="st7" cx="924.9" cy="30.1" r="2.8"/>
				</g>
				<g>
					<circle class="st7" cx="822" cy="39.3" r="2.8"/>
					<circle class="st7" cx="830.6" cy="39.3" r="2.8"/>
					<circle class="st7" cx="839.2" cy="39.3" r="2.8"/>
					<circle class="st7" cx="847.7" cy="39.3" r="2.8"/>
					<circle class="st7" cx="856.3" cy="39.3" r="2.8"/>
					<circle class="st7" cx="864.9" cy="39.3" r="2.8"/>
					<circle class="st7" cx="873.5" cy="39.3" r="2.8"/>
					<circle class="st7" cx="882" cy="39.3" r="2.8"/>
					<circle class="st7" cx="890.6" cy="39.3" r="2.8"/>
					<circle class="st7" cx="899.2" cy="39.3" r="2.8"/>
					<circle class="st7" cx="907.7" cy="39.3" r="2.8"/>
					<circle class="st7" cx="916.3" cy="39.3" r="2.8"/>
					<circle class="st7" cx="924.9" cy="39.3" r="2.8"/>
				</g>
				<g>
					<circle class="st7" cx="822" cy="48.5" r="2.8"/>
					<circle class="st7" cx="830.6" cy="48.5" r="2.8"/>
					<circle class="st7" cx="839.2" cy="48.5" r="2.8"/>
					<circle class="st7" cx="847.7" cy="48.5" r="2.8"/>
					<circle class="st7" cx="856.3" cy="48.5" r="2.8"/>
					<circle class="st7" cx="864.9" cy="48.5" r="2.8"/>
					<circle class="st7" cx="873.5" cy="48.5" r="2.8"/>
					<circle class="st7" cx="882" cy="48.5" r="2.8"/>
					<circle class="st7" cx="890.6" cy="48.5" r="2.8"/>
					<circle class="st7" cx="899.2" cy="48.5" r="2.8"/>
					<circle class="st7" cx="907.7" cy="48.5" r="2.8"/>
					<circle class="st7" cx="916.3" cy="48.5" r="2.8"/>
					<circle class="st7" cx="924.9" cy="48.5" r="2.8"/>
				</g>
				<g>
					<circle class="st7" cx="822" cy="57.6" r="2.8"/>
					<circle class="st7" cx="830.6" cy="57.6" r="2.8"/>
					<circle class="st7" cx="839.2" cy="57.6" r="2.8"/>
					<circle class="st7" cx="847.7" cy="57.6" r="2.8"/>
					<circle class="st7" cx="856.3" cy="57.6" r="2.8"/>
					<circle class="st7" cx="864.9" cy="57.6" r="2.8"/>
					<circle class="st7" cx="873.5" cy="57.6" r="2.8"/>
					<circle class="st7" cx="882" cy="57.6" r="2.8"/>
					<circle class="st7" cx="890.6" cy="57.6" r="2.8"/>
					<circle class="st7" cx="899.2" cy="57.6" r="2.8"/>
					<circle class="st7" cx="907.7" cy="57.6" r="2.8"/>
					<circle class="st7" cx="916.3" cy="57.6" r="2.8"/>
					<circle class="st7" cx="924.9" cy="57.6" r="2.8"/>
				</g>
				<g>
					<circle class="st7" cx="822" cy="66.8" r="2.8"/>
					<circle class="st7" cx="830.6" cy="66.8" r="2.8"/>
					<circle class="st7" cx="839.2" cy="66.8" r="2.8"/>
					<circle class="st7" cx="847.7" cy="66.8" r="2.8"/>
					<circle class="st7" cx="856.3" cy="66.8" r="2.8"/>
					<circle class="st7" cx="864.9" cy="66.8" r="2.8"/>
					<circle class="st7" cx="873.5" cy="66.8" r="2.8"/>
					<circle class="st7" cx="882" cy="66.8" r="2.8"/>
					<circle class="st7" cx="890.6" cy="66.8" r="2.8"/>
					<circle class="st7" cx="899.2" cy="66.8" r="2.8"/>
					<circle class="st7" cx="907.7" cy="66.8" r="2.8"/>
					<circle class="st7" cx="916.3" cy="66.8" r="2.8"/>
					<circle class="st7" cx="924.9" cy="66.8" r="2.8"/>
				</g>
				<g>
					<circle class="st7" cx="822" cy="76" r="2.8"/>
					<circle class="st7" cx="830.6" cy="76" r="2.8"/>
					<circle class="st7" cx="839.2" cy="76" r="2.8"/>
					<circle class="st7" cx="847.7" cy="76" r="2.8"/>
					<circle class="st7" cx="856.3" cy="76" r="2.8"/>
					<circle class="st7" cx="864.9" cy="76" r="2.8"/>
					<circle class="st7" cx="873.5" cy="76" r="2.8"/>
					<circle class="st7" cx="882" cy="76" r="2.8"/>
					<circle class="st7" cx="890.6" cy="76" r="2.8"/>
					<circle class="st7" cx="899.2" cy="76" r="2.8"/>
					<circle class="st7" cx="907.7" cy="76" r="2.8"/>
					<circle class="st7" cx="916.3" cy="76" r="2.8"/>
					<circle class="st7" cx="924.9" cy="76" r="2.8"/>
				</g>
				<g>
					<circle class="st7" cx="822" cy="85.2" r="2.8"/>
					<circle class="st7" cx="830.6" cy="85.2" r="2.8"/>
					<circle class="st7" cx="839.2" cy="85.2" r="2.8"/>
					<circle class="st7" cx="847.7" cy="85.2" r="2.8"/>
					<circle class="st7" cx="856.3" cy="85.2" r="2.8"/>
					<circle class="st7" cx="864.9" cy="85.2" r="2.8"/>
					<circle class="st7" cx="873.5" cy="85.2" r="2.8"/>
					<circle class="st7" cx="882" cy="85.2" r="2.8"/>
					<circle class="st7" cx="890.6" cy="85.2" r="2.8"/>
					<circle class="st7" cx="899.2" cy="85.2" r="2.8"/>
					<circle class="st7" cx="907.7" cy="85.2" r="2.8"/>
					<circle class="st7" cx="916.3" cy="85.2" r="2.8"/>
					<circle class="st7" cx="924.9" cy="85.2" r="2.8"/>
				</g>
				<g>
					<circle class="st7" cx="822" cy="94.4" r="2.8"/>
					<circle class="st7" cx="830.6" cy="94.4" r="2.8"/>
					<circle class="st7" cx="839.2" cy="94.4" r="2.8"/>
					<circle class="st7" cx="847.7" cy="94.4" r="2.8"/>
					<circle class="st7" cx="856.3" cy="94.4" r="2.8"/>
					<circle class="st7" cx="864.9" cy="94.4" r="2.8"/>
					<circle class="st7" cx="873.5" cy="94.4" r="2.8"/>
					<circle class="st7" cx="882" cy="94.4" r="2.8"/>
					<circle class="st7" cx="890.6" cy="94.4" r="2.8"/>
					<circle class="st7" cx="899.2" cy="94.4" r="2.8"/>
					<circle class="st7" cx="907.7" cy="94.4" r="2.8"/>
					<circle class="st7" cx="916.3" cy="94.4" r="2.8"/>
					<circle class="st7" cx="924.9" cy="94.4" r="2.8"/>
				</g>
				<g>
					<circle class="st7" cx="822" cy="103.6" r="2.8"/>
					<circle class="st7" cx="830.6" cy="103.6" r="2.8"/>
					<circle class="st7" cx="839.2" cy="103.6" r="2.8"/>
					<circle class="st7" cx="847.7" cy="103.6" r="2.8"/>
					<circle class="st7" cx="856.3" cy="103.6" r="2.8"/>
					<circle class="st7" cx="864.9" cy="103.6" r="2.8"/>
					<circle class="st7" cx="873.5" cy="103.6" r="2.8"/>
					<circle class="st7" cx="882" cy="103.6" r="2.8"/>
					<circle class="st7" cx="890.6" cy="103.6" r="2.8"/>
					<circle class="st7" cx="899.2" cy="103.6" r="2.8"/>
					<circle class="st7" cx="907.7" cy="103.6" r="2.8"/>
					<circle class="st7" cx="916.3" cy="103.6" r="2.8"/>
					<circle class="st7" cx="924.9" cy="103.6" r="2.8"/>
				</g>
				<g>
					<circle class="st7" cx="822" cy="112.8" r="2.8"/>
					<circle class="st7" cx="830.6" cy="112.8" r="2.8"/>
					<circle class="st7" cx="839.2" cy="112.8" r="2.8"/>
					<circle class="st7" cx="847.7" cy="112.8" r="2.8"/>
					<circle class="st7" cx="856.3" cy="112.8" r="2.8"/>
					<circle class="st7" cx="864.9" cy="112.8" r="2.8"/>
					<circle class="st7" cx="873.5" cy="112.8" r="2.8"/>
					<circle class="st7" cx="882" cy="112.8" r="2.8"/>
					<circle class="st7" cx="890.6" cy="112.8" r="2.8"/>
					<circle class="st7" cx="899.2" cy="112.8" r="2.8"/>
					<circle class="st7" cx="907.7" cy="112.8" r="2.8"/>
					<circle class="st7" cx="916.3" cy="112.8" r="2.8"/>
					<circle class="st7" cx="924.9" cy="112.8" r="2.8"/>
				</g>
			</g>
			<g>
				<g>
					<circle class="st7" cx="719.2" cy="2.5" r="2.8"/>
					<circle class="st7" cx="727.7" cy="2.5" r="2.8"/>
					<circle class="st7" cx="736.3" cy="2.5" r="2.8"/>
					<circle class="st7" cx="744.9" cy="2.5" r="2.8"/>
					<circle class="st7" cx="753.5" cy="2.5" r="2.8"/>
					<circle class="st7" cx="762" cy="2.5" r="2.8"/>
					<circle class="st7" cx="770.6" cy="2.5" r="2.8"/>
					<circle class="st7" cx="779.2" cy="2.5" r="2.8"/>
					<circle class="st7" cx="787.7" cy="2.5" r="2.8"/>
					<circle class="st7" cx="796.3" cy="2.5" r="2.8"/>
					<circle class="st7" cx="804.9" cy="2.5" r="2.8"/>
					<circle class="st7" cx="813.5" cy="2.5" r="2.8"/>
					<circle class="st7" cx="822" cy="2.5" r="2.8"/>
				</g>
				<g>
					<circle class="st7" cx="719.2" cy="11.7" r="2.8"/>
					<circle class="st7" cx="727.7" cy="11.7" r="2.8"/>
					<circle class="st7" cx="736.3" cy="11.7" r="2.8"/>
					<circle class="st7" cx="744.9" cy="11.7" r="2.8"/>
					<circle class="st7" cx="753.5" cy="11.7" r="2.8"/>
					<circle class="st7" cx="762" cy="11.7" r="2.8"/>
					<circle class="st7" cx="770.6" cy="11.7" r="2.8"/>
					<circle class="st7" cx="779.2" cy="11.7" r="2.8"/>
					<circle class="st7" cx="787.7" cy="11.7" r="2.8"/>
					<circle class="st7" cx="796.3" cy="11.7" r="2.8"/>
					<circle class="st7" cx="804.9" cy="11.7" r="2.8"/>
					<circle class="st7" cx="813.5" cy="11.7" r="2.8"/>
					<circle class="st7" cx="822" cy="11.7" r="2.8"/>
				</g>
				<g>
					<circle class="st7" cx="719.2" cy="20.9" r="2.8"/>
					<circle class="st7" cx="727.7" cy="20.9" r="2.8"/>
					<circle class="st7" cx="736.3" cy="20.9" r="2.8"/>
					<circle class="st7" cx="744.9" cy="20.9" r="2.8"/>
					<circle class="st7" cx="753.5" cy="20.9" r="2.8"/>
					<circle class="st7" cx="762" cy="20.9" r="2.8"/>
					<circle class="st7" cx="770.6" cy="20.9" r="2.8"/>
					<circle class="st7" cx="779.2" cy="20.9" r="2.8"/>
					<circle class="st7" cx="787.7" cy="20.9" r="2.8"/>
					<circle class="st7" cx="796.3" cy="20.9" r="2.8"/>
					<circle class="st7" cx="804.9" cy="20.9" r="2.8"/>
					<circle class="st7" cx="813.5" cy="20.9" r="2.8"/>
					<circle class="st7" cx="822" cy="20.9" r="2.8"/>
				</g>
				<g>
					<circle class="st7" cx="719.2" cy="30.1" r="2.8"/>
					<circle class="st7" cx="727.7" cy="30.1" r="2.8"/>
					<circle class="st7" cx="736.3" cy="30.1" r="2.8"/>
					<circle class="st7" cx="744.9" cy="30.1" r="2.8"/>
					<circle class="st7" cx="753.5" cy="30.1" r="2.8"/>
					<circle class="st7" cx="762" cy="30.1" r="2.8"/>
					<circle class="st7" cx="770.6" cy="30.1" r="2.8"/>
					<circle class="st7" cx="779.2" cy="30.1" r="2.8"/>
					<circle class="st7" cx="787.7" cy="30.1" r="2.8"/>
					<circle class="st7" cx="796.3" cy="30.1" r="2.8"/>
					<circle class="st7" cx="804.9" cy="30.1" r="2.8"/>
					<circle class="st7" cx="813.5" cy="30.1" r="2.8"/>
					<circle class="st7" cx="822" cy="30.1" r="2.8"/>
				</g>
				<g>
					<circle class="st7" cx="719.2" cy="39.3" r="2.8"/>
					<circle class="st7" cx="727.7" cy="39.3" r="2.8"/>
					<circle class="st7" cx="736.3" cy="39.3" r="2.8"/>
					<circle class="st7" cx="744.9" cy="39.3" r="2.8"/>
					<circle class="st7" cx="753.5" cy="39.3" r="2.8"/>
					<circle class="st7" cx="762" cy="39.3" r="2.8"/>
					<circle class="st7" cx="770.6" cy="39.3" r="2.8"/>
					<circle class="st7" cx="779.2" cy="39.3" r="2.8"/>
					<circle class="st7" cx="787.7" cy="39.3" r="2.8"/>
					<circle class="st7" cx="796.3" cy="39.3" r="2.8"/>
					<circle class="st7" cx="804.9" cy="39.3" r="2.8"/>
					<circle class="st7" cx="813.5" cy="39.3" r="2.8"/>
					<circle class="st7" cx="822" cy="39.3" r="2.8"/>
				</g>
				<g>
					<circle class="st7" cx="719.2" cy="48.5" r="2.8"/>
					<circle class="st7" cx="727.7" cy="48.5" r="2.8"/>
					<circle class="st7" cx="736.3" cy="48.5" r="2.8"/>
					<circle class="st7" cx="744.9" cy="48.5" r="2.8"/>
					<circle class="st7" cx="753.5" cy="48.5" r="2.8"/>
					<circle class="st7" cx="762" cy="48.5" r="2.8"/>
					<circle class="st7" cx="770.6" cy="48.5" r="2.8"/>
					<circle class="st7" cx="779.2" cy="48.5" r="2.8"/>
					<circle class="st7" cx="787.7" cy="48.5" r="2.8"/>
					<circle class="st7" cx="796.3" cy="48.5" r="2.8"/>
					<circle class="st7" cx="804.9" cy="48.5" r="2.8"/>
					<circle class="st7" cx="813.5" cy="48.5" r="2.8"/>
					<circle class="st7" cx="822" cy="48.5" r="2.8"/>
				</g>
				<g>
					<circle class="st7" cx="719.2" cy="57.6" r="2.8"/>
					<circle class="st7" cx="727.7" cy="57.6" r="2.8"/>
					<circle class="st7" cx="736.3" cy="57.6" r="2.8"/>
					<circle class="st7" cx="744.9" cy="57.6" r="2.8"/>
					<circle class="st7" cx="753.5" cy="57.6" r="2.8"/>
					<circle class="st7" cx="762" cy="57.6" r="2.8"/>
					<circle class="st7" cx="770.6" cy="57.6" r="2.8"/>
					<circle class="st7" cx="779.2" cy="57.6" r="2.8"/>
					<circle class="st7" cx="787.7" cy="57.6" r="2.8"/>
					<circle class="st7" cx="796.3" cy="57.6" r="2.8"/>
					<circle class="st7" cx="804.9" cy="57.6" r="2.8"/>
					<circle class="st7" cx="813.5" cy="57.6" r="2.8"/>
					<circle class="st7" cx="822" cy="57.6" r="2.8"/>
				</g>
				<g>
					<circle class="st7" cx="719.2" cy="66.8" r="2.8"/>
					<circle class="st7" cx="727.7" cy="66.8" r="2.8"/>
					<circle class="st7" cx="736.3" cy="66.8" r="2.8"/>
					<circle class="st7" cx="744.9" cy="66.8" r="2.8"/>
					<circle class="st7" cx="753.5" cy="66.8" r="2.8"/>
					<circle class="st7" cx="762" cy="66.8" r="2.8"/>
					<circle class="st7" cx="770.6" cy="66.8" r="2.8"/>
					<circle class="st7" cx="779.2" cy="66.8" r="2.8"/>
					<circle class="st7" cx="787.7" cy="66.8" r="2.8"/>
					<circle class="st7" cx="796.3" cy="66.8" r="2.8"/>
					<circle class="st7" cx="804.9" cy="66.8" r="2.8"/>
					<circle class="st7" cx="813.5" cy="66.8" r="2.8"/>
					<circle class="st7" cx="822" cy="66.8" r="2.8"/>
				</g>
				<g>
					<circle class="st7" cx="719.2" cy="76" r="2.8"/>
					<circle class="st7" cx="727.7" cy="76" r="2.8"/>
					<circle class="st7" cx="736.3" cy="76" r="2.8"/>
					<circle class="st7" cx="744.9" cy="76" r="2.8"/>
					<circle class="st7" cx="753.5" cy="76" r="2.8"/>
					<circle class="st7" cx="762" cy="76" r="2.8"/>
					<circle class="st7" cx="770.6" cy="76" r="2.8"/>
					<circle class="st7" cx="779.2" cy="76" r="2.8"/>
					<circle class="st7" cx="787.7" cy="76" r="2.8"/>
					<circle class="st7" cx="796.3" cy="76" r="2.8"/>
					<circle class="st7" cx="804.9" cy="76" r="2.8"/>
					<circle class="st7" cx="813.5" cy="76" r="2.8"/>
					<circle class="st7" cx="822" cy="76" r="2.8"/>
				</g>
				<g>
					<circle class="st7" cx="719.2" cy="85.2" r="2.8"/>
					<circle class="st7" cx="727.7" cy="85.2" r="2.8"/>
					<circle class="st7" cx="736.3" cy="85.2" r="2.8"/>
					<circle class="st7" cx="744.9" cy="85.2" r="2.8"/>
					<circle class="st7" cx="753.5" cy="85.2" r="2.8"/>
					<circle class="st7" cx="762" cy="85.2" r="2.8"/>
					<circle class="st7" cx="770.6" cy="85.2" r="2.8"/>
					<circle class="st7" cx="779.2" cy="85.2" r="2.8"/>
					<circle class="st7" cx="787.7" cy="85.2" r="2.8"/>
					<circle class="st7" cx="796.3" cy="85.2" r="2.8"/>
					<circle class="st7" cx="804.9" cy="85.2" r="2.8"/>
					<circle class="st7" cx="813.5" cy="85.2" r="2.8"/>
					<circle class="st7" cx="822" cy="85.2" r="2.8"/>
				</g>
				<g>
					<circle class="st7" cx="719.2" cy="94.4" r="2.8"/>
					<circle class="st7" cx="727.7" cy="94.4" r="2.8"/>
					<circle class="st7" cx="736.3" cy="94.4" r="2.8"/>
					<circle class="st7" cx="744.9" cy="94.4" r="2.8"/>
					<circle class="st7" cx="753.5" cy="94.4" r="2.8"/>
					<circle class="st7" cx="762" cy="94.4" r="2.8"/>
					<circle class="st7" cx="770.6" cy="94.4" r="2.8"/>
					<circle class="st7" cx="779.2" cy="94.4" r="2.8"/>
					<circle class="st7" cx="787.7" cy="94.4" r="2.8"/>
					<circle class="st7" cx="796.3" cy="94.4" r="2.8"/>
					<circle class="st7" cx="804.9" cy="94.4" r="2.8"/>
					<circle class="st7" cx="813.5" cy="94.4" r="2.8"/>
					<circle class="st7" cx="822" cy="94.4" r="2.8"/>
				</g>
				<g>
					<circle class="st7" cx="719.2" cy="103.6" r="2.8"/>
					<circle class="st7" cx="727.7" cy="103.6" r="2.8"/>
					<circle class="st7" cx="736.3" cy="103.6" r="2.8"/>
					<circle class="st7" cx="744.9" cy="103.6" r="2.8"/>
					<circle class="st7" cx="753.5" cy="103.6" r="2.8"/>
					<circle class="st7" cx="762" cy="103.6" r="2.8"/>
					<circle class="st7" cx="770.6" cy="103.6" r="2.8"/>
					<circle class="st7" cx="779.2" cy="103.6" r="2.8"/>
					<circle class="st7" cx="787.7" cy="103.6" r="2.8"/>
					<circle class="st7" cx="796.3" cy="103.6" r="2.8"/>
					<circle class="st7" cx="804.9" cy="103.6" r="2.8"/>
					<circle class="st7" cx="813.5" cy="103.6" r="2.8"/>
					<circle class="st7" cx="822" cy="103.6" r="2.8"/>
				</g>
				<g>
					<circle class="st7" cx="719.2" cy="112.8" r="2.8"/>
					<circle class="st7" cx="727.7" cy="112.8" r="2.8"/>
					<circle class="st7" cx="736.3" cy="112.8" r="2.8"/>
					<circle class="st7" cx="744.9" cy="112.8" r="2.8"/>
					<circle class="st7" cx="753.5" cy="112.8" r="2.8"/>
					<circle class="st7" cx="762" cy="112.8" r="2.8"/>
					<circle class="st7" cx="770.6" cy="112.8" r="2.8"/>
					<circle class="st7" cx="779.2" cy="112.8" r="2.8"/>
					<circle class="st7" cx="787.7" cy="112.8" r="2.8"/>
					<circle class="st7" cx="796.3" cy="112.8" r="2.8"/>
					<circle class="st7" cx="804.9" cy="112.8" r="2.8"/>
					<circle class="st7" cx="813.5" cy="112.8" r="2.8"/>
					<circle class="st7" cx="822" cy="112.8" r="2.8"/>
				</g>
			</g>
		</g>
	</g>
	<path style="clip-path:url(#SVGID_4_);fill:#086A87;" d="M137.6,0.3c0,0-9,52.9-57,62.8c-31.7,6.5-15.3,37.5-15.3,37.5
		s8.4,26.2-7.8,48.7s-10.1,36.3-10.1,36.3s3.6,20-12,28.3c-11.6,6.2-21.7,16.8-28.4,31.3c-5.2,11.3-9.5,25.1-9.5,39.8V-0.8
		L137.6,0.3z"/>
	<path style="clip-path:url(#SVGID_4_);fill:#33CCCC;" d="M726.7,300.9l17.5-0.1l0.8,0l17.7-0.1l-0.3-51.8L746,262.1
		c-0.9,0.7-2.2,0.7-3.2,0l-16.4-13L726.7,300.9z"/>
	<g class="st13">
		<g>
			<path class="st34" d="M273.5,47c-0.5,0.3-0.9,0.7-1.4,1c-18,11.8-42.2,6.9-54-11.1c-8.9-13.5-8.3-30.5,0.1-43.1"/>
		</g>
		<path class="st34" d="M271.7,44.4c-3,2.2-6.4,3.9-10.1,5.1c-14,4.5-28.7-0.1-37.7-10.6"/>
		<path class="st34" d="M220.9,35.1c-1.3-2.2-2.4-4.4-3.3-6.8"/>
		<path class="st34" d="M216.2,24.4c0,0-2.5-8.3,0-16.8"/>
	</g>
	<g class="st13">
		<g>
			<path class="st10" d="M170.8,167.2c0.6-0.5,1.3-0.9,2-1.4c25.4-16.7,59.6-9.7,76.3,15.7c12.5,19.1,11.7,43-0.2,60.9"/>
		</g>
		<path class="st10" d="M173.4,170.7c4.2-3.1,9-5.5,14.2-7.2c19.7-6.4,40.5,0.2,53.3,15"/>
		<path class="st10" d="M245.1,183.9c1.9,3,3.4,6.3,4.6,9.6"/>
		<path class="st10" d="M251.7,199c0,0,3.5,11.7,0,23.8"/>
	</g>
	<path style="clip-path:url(#SVGID_4_);fill:#086A87;" d="M832.4-1.7c0,0,6,59,64.7,59c44,0,57.3,26.8,61.3,40.2
		c2.7,9.3,6.3,18.4,11.1,26.9c10.1,18.1,27.3,42.3,47,42.3l37.1-129V-1.7H832.4z"/>
	<g class="st13">
		<line class="st1" x1="876.3" y1="247.2" x2="876.3" y2="165.7"/>
		<line class="st1" x1="912" y1="246.8" x2="912" y2="165.3"/>
		<g>
			<polygon class="st0" points="876.3,154.7 863.8,176.3 888.8,176.3 			"/>
		</g>
		<g>
			<polygon class="st0" points="912,155.4 899.6,177 924.5,177 			"/>
		</g>
	</g>
	<path style="clip-path:url(#SVGID_4_);fill:#086A87;" d="M762.5,299.7H1026V120.9c0,0-36.6,13.3-44.7,72.7
		c-6.7,49.2-42.3,50.7-54.4,49.8c-6.8-0.5-13.6,0.3-20.1,2.7c-8.1,3.1-17.7,9.1-24.3,20.9c-8.2,14.6-28.7,10-44,3.9
		c-27.7-11.1-59-0.1-75,27C763.2,298.5,762.8,299.1,762.5,299.7z"/>
	<path style="clip-path:url(#SVGID_4_);fill:#086A87;" d="M-2.5,159.7c0,0,46.3-13.1,54.8,43.3c5.6,37.2,32.2,18,32.2,18
		s22.5-9.9,41.7,9.1s31.2,11.9,31.2,11.9s17.2-4.3,24.3,14.1c5.3,13.6,14.4,25.5,26.8,33.3c9.7,6.1,21.5,11.2,34.2,11.2H-2.5V159.7z
		"/>
	<g class="st13">
		<circle id="XMLID_11_" class="st2" cx="840.7" cy="304.5" r="82.5"/>
		<g>
			<defs>
				<circle id="SVGID_15_" cx="840.7" cy="304.5" r="82.5"/>
			</defs>
			<clipPath id="SVGID_8_">
				<use xlink:href="#SVGID_15_"  style="overflow:visible;"/>
			</clipPath>
			<g style="clip-path:url(#SVGID_8_);">
				<line class="st14" x1="851.2" y1="254.8" x2="872.5" y2="254.8"/>
				<line class="st14" x1="858.3" y1="268.3" x2="879.6" y2="268.3"/>
				<line class="st14" x1="861.8" y1="207.7" x2="870.6" y2="227.1"/>
				<line class="st14" x1="845.8" y1="263.2" x2="854" y2="282.8"/>
				<line class="st14" x1="845.8" y1="287.3" x2="854" y2="306.9"/>
				<line class="st14" x1="841.7" y1="250.7" x2="855.9" y2="234.9"/>
				<line class="st14" x1="862.7" y1="235.7" x2="878.6" y2="249.9"/>
				<line class="st14" x1="858.3" y1="288.1" x2="874.2" y2="302.2"/>
				<line class="st14" x1="883.2" y1="270.9" x2="870.6" y2="288.1"/>
				<line class="st14" x1="845" y1="233.2" x2="859.2" y2="217.4"/>
			</g>
			<g style="clip-path:url(#SVGID_8_);">
				<line class="st14" x1="936.7" y1="274.5" x2="915.5" y2="274.5"/>
				<line class="st14" x1="934.3" y1="302.6" x2="926.1" y2="283"/>
				<line class="st14" x1="921.7" y1="301.9" x2="905.9" y2="287.7"/>
				<line class="st14" x1="899.1" y1="302.2" x2="883.2" y2="288.1"/>
				<line class="st14" x1="896.8" y1="249.6" x2="910.4" y2="233.2"/>
				<line class="st14" x1="878" y1="233.5" x2="891.6" y2="217.1"/>
				<line class="st14" x1="926.1" y1="268.2" x2="939.7" y2="251.9"/>
				<line class="st14" x1="909.1" y1="226.1" x2="930.4" y2="226.1"/>
				<line class="st14" x1="913.4" y1="207.7" x2="898.4" y2="222.7"/>
				<line class="st14" x1="895.2" y1="263" x2="916.5" y2="263"/>
				<line class="st14" x1="909.1" y1="245.9" x2="925" y2="260"/>
				<line class="st14" x1="934" y1="228.7" x2="921.4" y2="245.9"/>
			</g>
			<g style="clip-path:url(#SVGID_8_);">
				<line class="st14" x1="752.5" y1="273.9" x2="773.7" y2="273.9"/>
				<line class="st14" x1="759.6" y1="287.3" x2="780.8" y2="287.3"/>
				<line class="st14" x1="763.1" y1="226.8" x2="771.9" y2="246.1"/>
				<line class="st14" x1="747" y1="282.3" x2="755.2" y2="301.9"/>
				<line class="st14" x1="743" y1="269.8" x2="757.1" y2="253.9"/>
				<line class="st14" x1="764" y1="254.8" x2="779.8" y2="269"/>
				<line class="st14" x1="784.5" y1="290" x2="771.9" y2="307.1"/>
				<line class="st14" x1="746.3" y1="252.3" x2="760.4" y2="236.5"/>
			</g>
			<g style="clip-path:url(#SVGID_8_);">
				<line class="st14" x1="838" y1="293.6" x2="816.7" y2="293.6"/>
				<line class="st14" x1="789.4" y1="309.8" x2="803.6" y2="294"/>
				<line class="st14" x1="798.1" y1="268.6" x2="811.7" y2="252.3"/>
				<line class="st14" x1="779.3" y1="252.6" x2="792.9" y2="236.2"/>
				<line class="st14" x1="827.3" y1="287.3" x2="840.9" y2="271"/>
				<line class="st14" x1="810.4" y1="245.2" x2="831.6" y2="245.2"/>
				<line class="st14" x1="814.6" y1="226.8" x2="799.6" y2="241.8"/>
				<line class="st14" x1="796.5" y1="282.1" x2="817.8" y2="282.1"/>
				<line class="st14" x1="810.4" y1="265" x2="826.2" y2="279.1"/>
				<line class="st14" x1="835.2" y1="247.8" x2="822.7" y2="265"/>
			</g>
		</g>
	</g>
	<path style="clip-path:url(#SVGID_4_);fill:#33CCCC;" d="M902.1,18.9c5.6,0,10.1,4.5,10.1,10.2c0,5.4-4.4,9.9-10.1,9.9
		c-5.5,0-10.1-4.5-10.1-9.9C892.1,23.4,896.6,18.9,902.1,18.9z"/>
	<path style="clip-path:url(#SVGID_4_);fill:#FFFFFF;" d="M931.1,18.9c5.6,0,10.1,4.5,10.1,10.2c0,5.4-4.4,9.9-10.1,9.9
		c-5.5,0-10.1-4.5-10.1-9.9C921.1,23.4,925.6,18.9,931.1,18.9z"/>
	<g class="st13">
		<rect x="23.6" y="269.9" class="st37" width="13.2" height="13.2"/>
		<rect x="50.1" y="269.9" class="st37" width="13.2" height="13.2"/>
		<rect x="76.5" y="269.9" class="st37" width="13.2" height="13.2"/>
		<rect x="89.7" y="269.9" class="st37" width="13.2" height="13.2"/>
		<rect x="23.6" y="256.7" class="st37" width="13.2" height="13.2"/>
		<rect x="36.9" y="256.7" class="st37" width="13.2" height="13.2"/>
		<rect x="50.1" y="256.7" class="st37" width="13.2" height="13.2"/>
		<rect x="63.3" y="256.7" class="st37" width="13.2" height="13.2"/>
		<rect x="89.7" y="243.5" class="st38" width="13.2" height="13.2"/>
		<rect x="76.5" y="230.3" class="st38" width="13.2" height="13.2"/>
		<rect x="36.9" y="269.9" class="st39" width="13.2" height="13.2"/>
		<rect x="63.3" y="269.9" class="st39" width="13.2" height="13.2"/>
		<rect x="76.5" y="256.7" class="st39" width="13.2" height="13.2"/>
	</g>
	<path style="clip-path:url(#SVGID_4_);fill:#33CCCC;" d="M847.8,302.2c0-42.4,34.4-76.8,76.8-76.8c42.4,0,76.8,34.4,76.8,76.8
		H847.8z"/>
	<g class="st13">
		<defs>
			<path id="SVGID_17_" d="M866.6,302.2c0-42.4,34.4-76.8,76.8-76.8c42.4,0,76.8,34.4,76.8,76.8H866.6z"/>
		</defs>
		<clipPath id="SVGID_10_">
			<use xlink:href="#SVGID_17_"  style="overflow:visible;"/>
		</clipPath>
		<g class="st19">
			<defs>
				<rect id="SVGID_19_" x="482.3" y="147.4" width="553.9" height="176.2"/>
			</defs>
			<clipPath id="SVGID_12_">
				<use xlink:href="#SVGID_19_"  style="overflow:visible;"/>
			</clipPath>
			
				<line style="clip-path:url(#SVGID_12_);fill:none;stroke:#FFFFFF;stroke-width:0.5521;stroke-miterlimit:10;" x1="523.8" y1="111.4" x2="264.4" y2="370.8"/>
			
				<line style="clip-path:url(#SVGID_12_);fill:none;stroke:#FFFFFF;stroke-width:0.5521;stroke-miterlimit:10;" x1="532.7" y1="111.4" x2="273.3" y2="370.8"/>
			
				<line style="clip-path:url(#SVGID_12_);fill:none;stroke:#FFFFFF;stroke-width:0.5521;stroke-miterlimit:10;" x1="541.6" y1="111.4" x2="282.2" y2="370.8"/>
			
				<line style="clip-path:url(#SVGID_12_);fill:none;stroke:#FFFFFF;stroke-width:0.5521;stroke-miterlimit:10;" x1="550.5" y1="111.4" x2="291.1" y2="370.8"/>
			
				<line style="clip-path:url(#SVGID_12_);fill:none;stroke:#FFFFFF;stroke-width:0.5521;stroke-miterlimit:10;" x1="559.3" y1="111.4" x2="299.9" y2="370.8"/>
			
				<line style="clip-path:url(#SVGID_12_);fill:none;stroke:#FFFFFF;stroke-width:0.5521;stroke-miterlimit:10;" x1="568.2" y1="111.4" x2="308.8" y2="370.8"/>
			
				<line style="clip-path:url(#SVGID_12_);fill:none;stroke:#FFFFFF;stroke-width:0.5521;stroke-miterlimit:10;" x1="577.1" y1="111.4" x2="317.7" y2="370.8"/>
			
				<line style="clip-path:url(#SVGID_12_);fill:none;stroke:#FFFFFF;stroke-width:0.5521;stroke-miterlimit:10;" x1="586" y1="111.4" x2="326.6" y2="370.8"/>
			
				<line style="clip-path:url(#SVGID_12_);fill:none;stroke:#FFFFFF;stroke-width:0.5521;stroke-miterlimit:10;" x1="594.9" y1="111.4" x2="335.5" y2="370.8"/>
			
				<line style="clip-path:url(#SVGID_12_);fill:none;stroke:#FFFFFF;stroke-width:0.5521;stroke-miterlimit:10;" x1="603.7" y1="111.4" x2="344.3" y2="370.8"/>
			
				<line style="clip-path:url(#SVGID_12_);fill:none;stroke:#FFFFFF;stroke-width:0.5521;stroke-miterlimit:10;" x1="612.6" y1="111.4" x2="353.2" y2="370.8"/>
			
				<line style="clip-path:url(#SVGID_12_);fill:none;stroke:#FFFFFF;stroke-width:0.5521;stroke-miterlimit:10;" x1="621.5" y1="111.4" x2="362.1" y2="370.8"/>
			
				<line style="clip-path:url(#SVGID_12_);fill:none;stroke:#FFFFFF;stroke-width:0.5521;stroke-miterlimit:10;" x1="630.4" y1="111.4" x2="371" y2="370.8"/>
			
				<line style="clip-path:url(#SVGID_12_);fill:none;stroke:#FFFFFF;stroke-width:0.5521;stroke-miterlimit:10;" x1="639.3" y1="111.4" x2="379.8" y2="370.8"/>
			
				<line style="clip-path:url(#SVGID_12_);fill:none;stroke:#FFFFFF;stroke-width:0.5521;stroke-miterlimit:10;" x1="648.1" y1="111.4" x2="388.7" y2="370.8"/>
			
				<line style="clip-path:url(#SVGID_12_);fill:none;stroke:#FFFFFF;stroke-width:0.5521;stroke-miterlimit:10;" x1="657" y1="111.4" x2="397.6" y2="370.8"/>
			
				<line style="clip-path:url(#SVGID_12_);fill:none;stroke:#FFFFFF;stroke-width:0.5521;stroke-miterlimit:10;" x1="665.9" y1="111.4" x2="406.5" y2="370.8"/>
			
				<line style="clip-path:url(#SVGID_12_);fill:none;stroke:#FFFFFF;stroke-width:0.5521;stroke-miterlimit:10;" x1="674.8" y1="111.4" x2="415.4" y2="370.8"/>
			
				<line style="clip-path:url(#SVGID_12_);fill:none;stroke:#FFFFFF;stroke-width:0.5521;stroke-miterlimit:10;" x1="683.6" y1="111.4" x2="424.2" y2="370.8"/>
			
				<line style="clip-path:url(#SVGID_12_);fill:none;stroke:#FFFFFF;stroke-width:0.5521;stroke-miterlimit:10;" x1="692.5" y1="111.4" x2="433.1" y2="370.8"/>
			
				<line style="clip-path:url(#SVGID_12_);fill:none;stroke:#FFFFFF;stroke-width:0.5521;stroke-miterlimit:10;" x1="701.4" y1="111.4" x2="442" y2="370.8"/>
			
				<line style="clip-path:url(#SVGID_12_);fill:none;stroke:#FFFFFF;stroke-width:0.5521;stroke-miterlimit:10;" x1="710.3" y1="111.4" x2="450.9" y2="370.8"/>
			
				<line style="clip-path:url(#SVGID_12_);fill:none;stroke:#FFFFFF;stroke-width:0.5521;stroke-miterlimit:10;" x1="719.2" y1="111.4" x2="459.7" y2="370.8"/>
			
				<line style="clip-path:url(#SVGID_12_);fill:none;stroke:#FFFFFF;stroke-width:0.5521;stroke-miterlimit:10;" x1="728" y1="111.4" x2="468.6" y2="370.8"/>
			
				<line style="clip-path:url(#SVGID_12_);fill:none;stroke:#FFFFFF;stroke-width:0.5521;stroke-miterlimit:10;" x1="736.9" y1="111.4" x2="477.5" y2="370.8"/>
			
				<line style="clip-path:url(#SVGID_12_);fill:none;stroke:#FFFFFF;stroke-width:0.5521;stroke-miterlimit:10;" x1="745.8" y1="111.4" x2="486.4" y2="370.8"/>
			
				<line style="clip-path:url(#SVGID_12_);fill:none;stroke:#FFFFFF;stroke-width:0.5521;stroke-miterlimit:10;" x1="754.7" y1="111.4" x2="495.3" y2="370.8"/>
			
				<line style="clip-path:url(#SVGID_12_);fill:none;stroke:#FFFFFF;stroke-width:0.5521;stroke-miterlimit:10;" x1="763.5" y1="111.4" x2="504.1" y2="370.8"/>
			
				<line style="clip-path:url(#SVGID_12_);fill:none;stroke:#FFFFFF;stroke-width:0.5521;stroke-miterlimit:10;" x1="772.4" y1="111.4" x2="513" y2="370.8"/>
			
				<line style="clip-path:url(#SVGID_12_);fill:none;stroke:#FFFFFF;stroke-width:0.5521;stroke-miterlimit:10;" x1="781.3" y1="111.4" x2="521.9" y2="370.8"/>
			
				<line style="clip-path:url(#SVGID_12_);fill:none;stroke:#FFFFFF;stroke-width:0.5521;stroke-miterlimit:10;" x1="790.2" y1="111.4" x2="530.8" y2="370.8"/>
			
				<line style="clip-path:url(#SVGID_12_);fill:none;stroke:#FFFFFF;stroke-width:0.5521;stroke-miterlimit:10;" x1="799.1" y1="111.4" x2="539.7" y2="370.8"/>
			
				<line style="clip-path:url(#SVGID_12_);fill:none;stroke:#FFFFFF;stroke-width:0.5521;stroke-miterlimit:10;" x1="807.9" y1="111.4" x2="548.5" y2="370.8"/>
			
				<line style="clip-path:url(#SVGID_12_);fill:none;stroke:#FFFFFF;stroke-width:0.5521;stroke-miterlimit:10;" x1="816.8" y1="111.4" x2="557.4" y2="370.8"/>
			
				<line style="clip-path:url(#SVGID_12_);fill:none;stroke:#FFFFFF;stroke-width:0.5521;stroke-miterlimit:10;" x1="825.7" y1="111.4" x2="566.3" y2="370.8"/>
			
				<line style="clip-path:url(#SVGID_12_);fill:none;stroke:#FFFFFF;stroke-width:0.5521;stroke-miterlimit:10;" x1="834.6" y1="111.4" x2="575.2" y2="370.8"/>
			
				<line style="clip-path:url(#SVGID_12_);fill:none;stroke:#FFFFFF;stroke-width:0.5521;stroke-miterlimit:10;" x1="843.5" y1="111.4" x2="584" y2="370.8"/>
			
				<line style="clip-path:url(#SVGID_12_);fill:none;stroke:#FFFFFF;stroke-width:0.5521;stroke-miterlimit:10;" x1="852.3" y1="111.4" x2="592.9" y2="370.8"/>
			
				<line style="clip-path:url(#SVGID_12_);fill:none;stroke:#FFFFFF;stroke-width:0.5521;stroke-miterlimit:10;" x1="861.2" y1="111.4" x2="601.8" y2="370.8"/>
			
				<line style="clip-path:url(#SVGID_12_);fill:none;stroke:#FFFFFF;stroke-width:0.5521;stroke-miterlimit:10;" x1="870.1" y1="111.4" x2="610.7" y2="370.8"/>
			
				<line style="clip-path:url(#SVGID_12_);fill:none;stroke:#FFFFFF;stroke-width:0.5521;stroke-miterlimit:10;" x1="879" y1="111.4" x2="619.6" y2="370.8"/>
			
				<line style="clip-path:url(#SVGID_12_);fill:none;stroke:#FFFFFF;stroke-width:0.5521;stroke-miterlimit:10;" x1="887.8" y1="111.4" x2="628.4" y2="370.8"/>
			
				<line style="clip-path:url(#SVGID_12_);fill:none;stroke:#FFFFFF;stroke-width:0.5521;stroke-miterlimit:10;" x1="896.7" y1="111.4" x2="637.3" y2="370.8"/>
			
				<line style="clip-path:url(#SVGID_12_);fill:none;stroke:#FFFFFF;stroke-width:0.5521;stroke-miterlimit:10;" x1="905.6" y1="111.4" x2="646.2" y2="370.8"/>
			
				<line style="clip-path:url(#SVGID_12_);fill:none;stroke:#FFFFFF;stroke-width:0.5521;stroke-miterlimit:10;" x1="914.5" y1="111.4" x2="655.1" y2="370.8"/>
			
				<line style="clip-path:url(#SVGID_12_);fill:none;stroke:#FFFFFF;stroke-width:0.5521;stroke-miterlimit:10;" x1="923.4" y1="111.4" x2="663.9" y2="370.8"/>
			
				<line style="clip-path:url(#SVGID_12_);fill:none;stroke:#FFFFFF;stroke-width:0.5521;stroke-miterlimit:10;" x1="932.2" y1="111.4" x2="672.8" y2="370.8"/>
			
				<line style="clip-path:url(#SVGID_12_);fill:none;stroke:#FFFFFF;stroke-width:0.5521;stroke-miterlimit:10;" x1="941.1" y1="111.4" x2="681.7" y2="370.8"/>
			
				<line style="clip-path:url(#SVGID_12_);fill:none;stroke:#FFFFFF;stroke-width:0.5521;stroke-miterlimit:10;" x1="950" y1="111.4" x2="690.6" y2="370.8"/>
			
				<line style="clip-path:url(#SVGID_12_);fill:none;stroke:#FFFFFF;stroke-width:0.5521;stroke-miterlimit:10;" x1="958.9" y1="111.4" x2="699.5" y2="370.8"/>
			
				<line style="clip-path:url(#SVGID_12_);fill:none;stroke:#FFFFFF;stroke-width:0.5521;stroke-miterlimit:10;" x1="967.8" y1="111.4" x2="708.3" y2="370.8"/>
			
				<line style="clip-path:url(#SVGID_12_);fill:none;stroke:#FFFFFF;stroke-width:0.5521;stroke-miterlimit:10;" x1="976.6" y1="111.4" x2="717.2" y2="370.8"/>
			
				<line style="clip-path:url(#SVGID_12_);fill:none;stroke:#FFFFFF;stroke-width:0.5521;stroke-miterlimit:10;" x1="985.5" y1="111.4" x2="726.1" y2="370.8"/>
			
				<line style="clip-path:url(#SVGID_12_);fill:none;stroke:#FFFFFF;stroke-width:0.5521;stroke-miterlimit:10;" x1="994.4" y1="111.4" x2="735" y2="370.8"/>
			
				<line style="clip-path:url(#SVGID_12_);fill:none;stroke:#FFFFFF;stroke-width:0.5521;stroke-miterlimit:10;" x1="1003.3" y1="111.4" x2="743.9" y2="370.8"/>
			
				<line style="clip-path:url(#SVGID_12_);fill:none;stroke:#FFFFFF;stroke-width:0.5521;stroke-miterlimit:10;" x1="1012.1" y1="111.4" x2="752.7" y2="370.8"/>
			
				<line style="clip-path:url(#SVGID_12_);fill:none;stroke:#FFFFFF;stroke-width:0.5521;stroke-miterlimit:10;" x1="1021" y1="111.4" x2="761.6" y2="370.8"/>
			
				<line style="clip-path:url(#SVGID_12_);fill:none;stroke:#FFFFFF;stroke-width:0.5521;stroke-miterlimit:10;" x1="1029.9" y1="111.4" x2="770.5" y2="370.8"/>
			
				<line style="clip-path:url(#SVGID_12_);fill:none;stroke:#FFFFFF;stroke-width:0.5521;stroke-miterlimit:10;" x1="1038.8" y1="111.4" x2="779.4" y2="370.8"/>
			
				<line style="clip-path:url(#SVGID_12_);fill:none;stroke:#FFFFFF;stroke-width:0.5521;stroke-miterlimit:10;" x1="1047.7" y1="111.4" x2="788.2" y2="370.8"/>
			
				<line style="clip-path:url(#SVGID_12_);fill:none;stroke:#FFFFFF;stroke-width:0.5521;stroke-miterlimit:10;" x1="1056.5" y1="111.4" x2="797.1" y2="370.8"/>
			
				<line style="clip-path:url(#SVGID_12_);fill:none;stroke:#FFFFFF;stroke-width:0.5521;stroke-miterlimit:10;" x1="1065.4" y1="111.4" x2="806" y2="370.8"/>
			
				<line style="clip-path:url(#SVGID_12_);fill:none;stroke:#FFFFFF;stroke-width:0.5521;stroke-miterlimit:10;" x1="1074.3" y1="111.4" x2="814.9" y2="370.8"/>
			
				<line style="clip-path:url(#SVGID_12_);fill:none;stroke:#FFFFFF;stroke-width:0.5521;stroke-miterlimit:10;" x1="1083.2" y1="111.4" x2="823.8" y2="370.8"/>
			
				<line style="clip-path:url(#SVGID_12_);fill:none;stroke:#FFFFFF;stroke-width:0.5521;stroke-miterlimit:10;" x1="1092" y1="111.4" x2="832.6" y2="370.8"/>
			
				<line style="clip-path:url(#SVGID_12_);fill:none;stroke:#FFFFFF;stroke-width:0.5521;stroke-miterlimit:10;" x1="1100.9" y1="111.4" x2="841.5" y2="370.8"/>
			
				<line style="clip-path:url(#SVGID_12_);fill:none;stroke:#FFFFFF;stroke-width:0.5521;stroke-miterlimit:10;" x1="1109.8" y1="111.4" x2="850.4" y2="370.8"/>
			
				<line style="clip-path:url(#SVGID_12_);fill:none;stroke:#FFFFFF;stroke-width:0.5521;stroke-miterlimit:10;" x1="1118.7" y1="111.4" x2="859.3" y2="370.8"/>
			
				<line style="clip-path:url(#SVGID_12_);fill:none;stroke:#FFFFFF;stroke-width:0.5521;stroke-miterlimit:10;" x1="1127.6" y1="111.4" x2="868.2" y2="370.8"/>
			
				<line style="clip-path:url(#SVGID_12_);fill:none;stroke:#FFFFFF;stroke-width:0.5521;stroke-miterlimit:10;" x1="1136.4" y1="111.4" x2="877" y2="370.8"/>
			
				<line style="clip-path:url(#SVGID_12_);fill:none;stroke:#FFFFFF;stroke-width:0.5521;stroke-miterlimit:10;" x1="1145.3" y1="111.4" x2="885.9" y2="370.8"/>
			
				<line style="clip-path:url(#SVGID_12_);fill:none;stroke:#FFFFFF;stroke-width:0.5521;stroke-miterlimit:10;" x1="1154.2" y1="111.4" x2="894.8" y2="370.8"/>
			
				<line style="clip-path:url(#SVGID_12_);fill:none;stroke:#FFFFFF;stroke-width:0.5521;stroke-miterlimit:10;" x1="1163.1" y1="111.4" x2="903.7" y2="370.8"/>
			
				<line style="clip-path:url(#SVGID_12_);fill:none;stroke:#FFFFFF;stroke-width:0.5521;stroke-miterlimit:10;" x1="1172" y1="111.4" x2="912.5" y2="370.8"/>
			
				<line style="clip-path:url(#SVGID_12_);fill:none;stroke:#FFFFFF;stroke-width:0.5521;stroke-miterlimit:10;" x1="1180.8" y1="111.4" x2="921.4" y2="370.8"/>
			
				<line style="clip-path:url(#SVGID_12_);fill:none;stroke:#FFFFFF;stroke-width:0.5521;stroke-miterlimit:10;" x1="1189.7" y1="111.4" x2="930.3" y2="370.8"/>
			
				<line style="clip-path:url(#SVGID_12_);fill:none;stroke:#FFFFFF;stroke-width:0.5521;stroke-miterlimit:10;" x1="1198.6" y1="111.4" x2="939.2" y2="370.8"/>
			
				<line style="clip-path:url(#SVGID_12_);fill:none;stroke:#FFFFFF;stroke-width:0.5521;stroke-miterlimit:10;" x1="1207.5" y1="111.4" x2="948.1" y2="370.8"/>
			
				<line style="clip-path:url(#SVGID_12_);fill:none;stroke:#FFFFFF;stroke-width:0.5521;stroke-miterlimit:10;" x1="1216.3" y1="111.4" x2="956.9" y2="370.8"/>
			
				<line style="clip-path:url(#SVGID_12_);fill:none;stroke:#FFFFFF;stroke-width:0.5521;stroke-miterlimit:10;" x1="1225.2" y1="111.4" x2="965.8" y2="370.8"/>
			
				<line style="clip-path:url(#SVGID_12_);fill:none;stroke:#FFFFFF;stroke-width:0.5521;stroke-miterlimit:10;" x1="1234.1" y1="111.4" x2="974.7" y2="370.8"/>
			
				<line style="clip-path:url(#SVGID_12_);fill:none;stroke:#FFFFFF;stroke-width:0.5521;stroke-miterlimit:10;" x1="1243" y1="111.4" x2="983.6" y2="370.8"/>
		</g>
	</g>
	<g class="st13">
		<polygon class="st5" points="136.2,275.5 125.9,269.6 125.9,281.5 		"/>
		<polygon class="st6" points="147.4,275.3 137.1,269.3 137.1,281.3 		"/>
		<polygon class="st5" points="158.6,275.1 148.3,269.1 148.3,281 		"/>
	</g>
	<g class="st13">
		
			<ellipse transform="matrix(0.9998 -1.814464e-02 1.814464e-02 0.9998 -2.0317 14.5682)" class="st42" cx="801.8" cy="119.2" rx="4.9" ry="4.9"/>
		<path class="st43" d="M882,119.3c0.4,22.2-17.2,40.5-39.4,40.9s-40.5-17.2-40.9-39.4"/>
		
			<ellipse transform="matrix(0.9998 -1.814464e-02 1.814464e-02 0.9998 -2.0183 16.0387)" class="st42" cx="882.9" cy="119.2" rx="4.9" ry="4.9"/>
	</g>
	<g class="st13">
		
			<ellipse transform="matrix(0.6942 -0.7198 0.7198 0.6942 -80.6281 102.6467)" class="st0" cx="80.5" cy="146.2" rx="4.8" ry="4.8"/>
		<path class="st8" d="M137.6,201.3c-15.2,15.8-40.4,16.3-56.2,1.1c-15.8-15.2-16.3-40.4-1.1-56.2"/>
		
			<ellipse transform="matrix(0.6942 -0.7198 0.7198 0.6942 -103.0585 161.2618)" class="st0" cx="138.2" cy="201.9" rx="4.8" ry="4.8"/>
	</g>
	<g class="st13">
		<path class="st2" d="M194.6,51l-26.3,0.2l-1.2,0l-26.7,0.2l0.5,78l24.8-20c1.4-1.1,3.4-1.1,4.8,0l24.7,19.7L194.6,51z"/>
		
			<ellipse transform="matrix(1 -6.111217e-03 6.111217e-03 1 -0.1314 1.0249)" class="st44" cx="167.6" cy="22" rx="48.8" ry="48.8"/>
		<g>
			<path class="st45" d="M124.5,24.5c0-0.6-0.1-1.3-0.1-1.9c-0.1-24.1,19.2-43.7,43.3-43.8c18-0.1,33.6,10.8,40.3,26.4"/>
			<path class="st45" d="M125.9,35.4c5.6,17.7,22.2,30.5,41.8,30.4c19.4-0.1,35.7-12.9,41.3-30.4"/>
		</g>
		<path class="st45" d="M131.2,37.8c3.3,7.7,9.1,14.3,16.7,18.6c2.9,1.6,6,2.9,9.3,3.9c3.2,0.9,6.5,1.3,9.7,1.4c0.4,0,0.8,0,1.2,0
			c6.9-0.1,13.6-2,19.5-5.5c7.2-4.2,13.1-10.7,16.4-18.8"/>
		<path class="st45" d="M128,24.3c-0.2-4.1,0.2-8.3,1.3-12.5c4.3-15.8,17.6-26.8,32.9-28.9"/>
		<path class="st2" d="M134.2,27.5c0,0-0.8,13.5,14.6,26.9"/>
		<rect x="196.3" y="0.7" class="st2" width="14.3" height="38.5"/>
	</g>
	<g class="st13">
		<g>
			<path class="st10" d="M106.4,21.6c-0.4,0.7-0.8,1.4-1.3,2.1C88.6,49.3,54.5,56.7,29,40.2C9.8,27.8,0.8,5.6,4.5-15.6"/>
		</g>
		<path class="st10" d="M102.6,19.4c-2.6,4.5-6,8.7-10.1,12.4C77.1,45.6,55.4,48,37.8,39.6"/>
		<path class="st10" d="M31.7,36.4c-3-2-5.7-4.3-8.1-6.9"/>
		<path class="st10" d="M19.5,25.2c0,0-7.9-9.3-9.7-21.8"/>
	</g>
	<g class="st13">
		<g>
			<path class="st10" d="M780.8,18.5c-0.4,0.7-0.8,1.4-1.3,2.1c-16.5,25.6-50.6,33-76.1,16.5c-19.2-12.4-28.1-34.6-24.5-55.8"/>
		</g>
		<path class="st10" d="M777,16.3c-2.6,4.5-6,8.7-10.1,12.4c-15.5,13.8-37.1,16.2-54.8,7.9"/>
		<path class="st10" d="M706.1,33.2c-3-2-5.7-4.3-8.1-6.9"/>
		<path class="st10" d="M693.9,22.1c0,0-7.9-9.3-9.7-21.8"/>
	</g>
	<g class="st13">
		<path class="st2" d="M75.9,262.9c-4.2,4.2-11,4.1-15.2-0.1c-4.1-4.1-4.1-10.8,0.1-15c4.2-4.2,11-4.2,15-0.1
			C80,251.9,80,258.8,75.9,262.9z"/>
		
			<rect x="21.9" y="185.6" transform="matrix(0.7071 -0.7071 0.7071 0.7071 -145.0052 85.4197)" class="st6" width="17.4" height="64.2"/>
	</g>
	<path style="clip-path:url(#SVGID_4_);fill:#FFFFFF;" d="M65.2,40.6l-49-41.7l26.1-30.7l9,7.6L33.2-3l11.2,9.5l16.3-19.2l8.5,7.2
		L52.9,13.8l11.3,9.6l18-21.2l9,7.6L65.2,40.6z"/>
	<rect x="213.8" y="71.8" style="clip-path:url(#SVGID_4_);fill:#33CCCC;" width="11.8" height="11.8"/>
	<rect x="225.6" y="83.6" style="clip-path:url(#SVGID_4_);fill:#086A87;" width="11.8" height="11.8"/>
	<g class="st13">
		<polygon class="st27" points="843.1,73.1 843.1,6.7 815.8,73.1 801.3,73.1 774.1,7.2 774.1,73.1 757.6,73.1 757.6,-18.7 
			780.7,-18.7 808.8,48.7 836.2,-18.7 860.1,-18.7 860.1,73.1 		"/>
		<path class="st0" d="M859.7-18.3v91h-16.3V8.6V4.8L842,8.3l-26.4,64.4h-14L775.1,8.8l-1.4-3.4v3.7v63.6H758v-91h22.5L808.1,48
			l0.7,1.7l0.7-1.7l27-66.3H859.7 M860.4-19.1h-24.5l-27.1,66.8L781-19.1h-23.7v92.5h17.2V9.1l26.6,64.3h15l26.6-64.8v64.8h17.7
			V-19.1L860.4-19.1z"/>
	</g>
	<path style="clip-path:url(#SVGID_4_);fill:#FF6633;" d="M989.5,199.9h-37.6l-7.7,21.1h-19l35.5-92.5h20.9l35.2,92.5h-19.6
		L989.5,199.9z M957.9,183.4h25.6l-12.8-35L957.9,183.4z"/>
	<g class="st13">
		<circle class="st2" cx="986.4" cy="91.7" r="5.3"/>
		<circle class="st5" cx="1005.8" cy="110.2" r="5.3"/>
		<line class="st20" x1="982.4" y1="114.7" x2="1010.4" y2="86.6"/>
	</g>
	<g class="st13">
		<circle class="st2" cx="986.6" cy="56" r="5.3"/>
		<circle class="st5" cx="1006.1" cy="74.5" r="5.3"/>
		<line class="st20" x1="982.6" y1="79.1" x2="1010.7" y2="50.9"/>
	</g>
	<g class="st13">
		<circle class="st2" cx="986.9" cy="20.3" r="5.3"/>
		<circle class="st5" cx="1006.4" cy="38.9" r="5.3"/>
		<line class="st20" x1="982.9" y1="43.4" x2="1010.9" y2="15.3"/>
	</g>
	<g class="st13">
		<g>
			<path class="st21" d="M697,130.6c0.6,33.7-26.1,61.5-59.8,62.2c-33.7,0.6-61.5-26.1-62.2-59.8"/>
			
				<ellipse transform="matrix(0.9998 -1.814464e-02 1.814464e-02 0.9998 -2.255 12.6911)" class="st2" cx="698.3" cy="130.6" rx="7.4" ry="7.4"/>
			
				<ellipse transform="matrix(0.9998 -1.814464e-02 1.814464e-02 0.9998 -2.3159 10.4558)" class="st7" cx="575" cy="132.9" rx="7.4" ry="7.4"/>
		</g>
		<g>
			<path class="st0" d="M447.3,31.1c1.5,0,2.6,1.2,2.6,2.7c0,1.4-1.1,2.6-2.6,2.6c-1.4,0-2.6-1.2-2.6-2.6
				C444.7,32.3,445.9,31.1,447.3,31.1z M445.2,54.6V38.9h4.2v15.7H445.2z"/>
			<path class="st0" d="M458.7,46.1v8.5h-4.4V32h8.5c4.5,0,7.4,3,7.4,7.1c0,4.1-3,7.1-7.4,7.1H458.7z M462.3,42.3
				c2.2,0,3.5-1.3,3.5-3.2c0-2-1.3-3.3-3.5-3.3h-3.5v6.5H462.3z"/>
			<path class="st0" d="M482.6,43.1c-0.5-0.1-0.9-0.1-1.3-0.1c-2.2,0-4.1,1.1-4.1,4.4v7.2H473V38.9h4.1v2.3c1-2.1,3.1-2.5,4.5-2.5
				c0.4,0,0.7,0,1,0.1V43.1z"/>
			<path class="st0" d="M487.7,31.1c1.5,0,2.6,1.2,2.6,2.7c0,1.4-1.1,2.6-2.6,2.6c-1.4,0-2.6-1.2-2.6-2.6
				C485.1,32.3,486.2,31.1,487.7,31.1z M485.6,54.6V38.9h4.2v15.7H485.6z"/>
			<path class="st0" d="M497.4,46.8c0,2.8,1.9,4.4,4,4.4s3.3-1.4,3.6-2.7l3.7,1.2c-0.7,2.6-3.2,5.3-7.3,5.3c-4.6,0-8.3-3.5-8.3-8.3
				c0-4.9,3.6-8.3,8.1-8.3c4.3,0,6.7,2.7,7.4,5.3l-3.8,1.3c-0.4-1.3-1.4-2.7-3.5-2.7C499.2,42.4,497.4,43.9,497.4,46.8z"/>
			<path class="st0" d="M525.8,50.1c-0.8,2.7-3.3,5-7.2,5c-4.3,0-8.1-3.1-8.1-8.4c0-5,3.7-8.3,7.7-8.3c4.9,0,7.8,3.1,7.8,8.1
				c0,0.6-0.1,1.2-0.1,1.3h-11.2c0.1,2.1,1.9,3.6,4,3.6c2,0,3.1-1,3.6-2.4L525.8,50.1z M521.9,45c-0.1-1.6-1.1-3.1-3.5-3.1
				c-2.2,0-3.4,1.7-3.5,3.1H521.9z"/>
			<path class="st0" d="M551.3,82.7V60.1h14.2v4.2h-9.8v5.2h8.8v3.9h-8.8v5.2h9.8v4.2H551.3z"/>
			<path class="st0" d="M568.7,75.1v-3.8h9.3v3.8H568.7z"/>
			<path class="st0" d="M580.6,71.4c0-7.2,5.5-11.8,11.5-11.8c6.3,0,9.5,3.8,10.4,7.5l-4.2,1.3c-0.5-2.2-2.3-4.6-6.2-4.6
				c-3.4,0-7,2.4-7,7.6c0,4.8,3.4,7.5,7,7.5c3.9,0,5.7-2.5,6.4-4.6l4.1,1.2c-0.9,3.5-4.1,7.7-10.5,7.7
				C585.9,83.2,580.6,78.6,580.6,71.4z"/>
			<path class="st0" d="M620.8,74.9c0,4.8-3.5,8.3-8.2,8.3c-4.7,0-8.2-3.5-8.2-8.3c0-4.9,3.5-8.3,8.2-8.3
				C617.2,66.5,620.8,70,620.8,74.9z M616.5,74.9c0-3-1.9-4.5-4-4.5c-2.1,0-4,1.5-4,4.5c0,2.9,1.9,4.5,4,4.5
				C614.6,79.3,616.5,77.8,616.5,74.9z"/>
			<path class="st0" d="M624.1,82.7V67h4.1v1.9c0.9-1.5,2.9-2.4,4.6-2.4c2.1,0,3.9,0.9,4.7,2.6c1.2-1.9,2.9-2.6,5-2.6
				c2.9,0,5.7,1.8,5.7,6v10.2H644v-9.3c0-1.7-0.8-3-2.8-3c-1.8,0-2.9,1.4-2.9,3.1v9.2h-4.2v-9.3c0-1.7-0.9-3-2.8-3
				c-1.9,0-2.9,1.4-2.9,3.1v9.2H624.1z"/>
			<path class="st0" d="M652.4,82.7V67h4.1v1.9c0.9-1.5,2.9-2.4,4.6-2.4c2.1,0,3.9,0.9,4.7,2.6c1.2-1.9,2.9-2.6,5-2.6
				c2.9,0,5.7,1.8,5.7,6v10.2h-4.1v-9.3c0-1.7-0.8-3-2.8-3c-1.8,0-2.9,1.4-2.9,3.1v9.2h-4.2v-9.3c0-1.7-0.9-3-2.8-3
				c-1.9,0-2.9,1.4-2.9,3.1v9.2H652.4z"/>
			<path class="st0" d="M694.8,78.2c-0.8,2.7-3.3,5-7.2,5c-4.3,0-8.1-3.1-8.1-8.4c0-5,3.7-8.3,7.7-8.3c4.9,0,7.8,3.1,7.8,8.1
				c0,0.6-0.1,1.2-0.1,1.3h-11.2c0.1,2.1,1.9,3.6,4,3.6c2,0,3.1-1,3.6-2.4L694.8,78.2z M690.8,73.1c-0.1-1.6-1.1-3.1-3.5-3.1
				c-2.2,0-3.4,1.7-3.5,3.1H690.8z"/>
			<path class="st0" d="M707.9,71.2c-0.5-0.1-0.9-0.1-1.3-0.1c-2.2,0-4.1,1.1-4.1,4.4v7.2h-4.2V67h4.1v2.3c1-2.1,3.1-2.5,4.5-2.5
				c0.4,0,0.7,0,1,0.1V71.2z"/>
			<path class="st0" d="M713.9,74.9c0,2.8,1.9,4.4,4,4.4s3.3-1.4,3.6-2.7l3.7,1.2c-0.7,2.6-3.2,5.3-7.3,5.3c-4.6,0-8.3-3.5-8.3-8.3
				c0-4.9,3.6-8.3,8.1-8.3c4.3,0,6.7,2.7,7.4,5.3l-3.8,1.3c-0.4-1.3-1.4-2.7-3.5-2.7C715.7,70.5,713.9,72,713.9,74.9z"/>
			<path class="st0" d="M742.3,78.2c-0.8,2.7-3.3,5-7.2,5c-4.3,0-8.1-3.1-8.1-8.4c0-5,3.7-8.3,7.7-8.3c4.9,0,7.8,3.1,7.8,8.1
				c0,0.6-0.1,1.2-0.1,1.3h-11.2c0.1,2.1,1.9,3.6,4,3.6c2,0,3.1-1,3.6-2.4L742.3,78.2z M738.3,73.1c-0.1-1.6-1.1-3.1-3.5-3.1
				c-2.2,0-3.4,1.7-3.5,3.1H738.3z"/>
			<path class="st0" d="M622.1,110.8V94.9l-6.5,15.9h-3.7l-6.5-15.7v15.7h-4.2V88.2h5.8l6.8,16.4l6.6-16.4h6v22.6H622.1z"/>
			<path class="st0" d="M645.3,106.3c-0.8,2.7-3.3,5-7.2,5c-4.3,0-8.1-3.1-8.1-8.4c0-5,3.7-8.3,7.7-8.3c4.9,0,7.8,3.1,7.8,8.1
				c0,0.6-0.1,1.2-0.1,1.3h-11.2c0.1,2.1,1.9,3.6,4,3.6c2,0,3.1-1,3.6-2.4L645.3,106.3z M641.3,101.2c-0.1-1.6-1.1-3.1-3.5-3.1
				c-2.2,0-3.4,1.7-3.5,3.1H641.3z"/>
			<path class="st0" d="M658.4,99.3c-0.5-0.1-0.9-0.1-1.3-0.1c-2.2,0-4.1,1.1-4.1,4.4v7.2h-4.2V95.1h4.1v2.3c1-2.1,3.1-2.5,4.5-2.5
				c0.4,0,0.7,0,1,0.1V99.3z"/>
			<path class="st0" d="M664.3,102.9c0,2.8,1.9,4.4,4,4.4s3.3-1.4,3.6-2.7l3.7,1.2c-0.7,2.6-3.2,5.3-7.3,5.3c-4.6,0-8.3-3.5-8.3-8.3
				c0-4.9,3.6-8.3,8.1-8.3c4.3,0,6.7,2.7,7.4,5.3l-3.8,1.3c-0.4-1.3-1.4-2.7-3.5-2.7C666.2,98.5,664.3,100.1,664.3,102.9z"/>
			<path class="st0" d="M683.1,110.8h-4.2V87.7h4.2v8.7c1-1.2,2.7-1.7,4.2-1.7c4,0,5.8,2.8,5.8,6.2v9.9h-4.2v-9.2
				c0-1.8-0.9-3.1-2.9-3.1c-1.8,0-2.8,1.3-2.9,3.1V110.8z"/>
			<path class="st0" d="M701.2,101.8l3.9-0.6c0.9-0.1,1.2-0.6,1.2-1.1c0-1.1-0.9-2-2.7-2c-1.9,0-2.9,1.2-3,2.6l-3.8-0.8
				c0.3-2.5,2.5-5.2,6.7-5.2c5,0,6.8,2.8,6.8,6v7.7c0,0.8,0.1,1.9,0.2,2.5h-3.9c-0.1-0.4-0.2-1.3-0.2-1.9c-0.8,1.2-2.3,2.3-4.6,2.3
				c-3.4,0-5.4-2.3-5.4-4.7C696.5,103.7,698.6,102.1,701.2,101.8z M706.3,104.4v-0.7l-3.5,0.5c-1.1,0.2-1.9,0.8-1.9,2
				c0,0.9,0.7,1.8,2,1.8C704.6,108.1,706.3,107.2,706.3,104.4z"/>
			<path class="st0" d="M718.9,110.8h-4.2V95.1h4.1V97c1-1.6,2.8-2.4,4.5-2.4c3.9,0,5.7,2.8,5.7,6.2v9.9h-4.2v-9.2
				c0-1.8-0.9-3.1-2.9-3.1c-1.9,0-2.9,1.4-2.9,3.3V110.8z"/>
			<path class="st0" d="M738.6,95.1h3.2v3.8h-3.2v6.6c0,1.4,0.6,1.8,1.9,1.8c0.5,0,1.1-0.1,1.3-0.1v3.5c-0.4,0.2-1.1,0.4-2.4,0.4
				c-3.1,0-5-1.8-5-4.9v-7.3h-2.8v-3.8h0.8c1.7,0,2.4-1.1,2.4-2.5v-2.2h3.8V95.1z"/>
			<path class="st0" d="M454.3,133.7h-9.2l-1.9,5.2h-4.7l8.7-22.6h5.1l8.6,22.6h-4.8L454.3,133.7z M446.6,129.7h6.3l-3.1-8.6
				L446.6,129.7z"/>
			<path class="st0" d="M476,123.2l3.4,10.1l2.9-10.1h4.2l-4.9,15.7h-4.2l-3.7-10.7l-3.6,10.7h-4.3l-5-15.7h4.5l2.9,10.1l3.4-10.1
				H476z"/>
			<path class="st0" d="M492.9,129.9l3.9-0.6c0.9-0.1,1.2-0.6,1.2-1.1c0-1.1-0.9-2-2.7-2c-1.9,0-2.9,1.2-3,2.6l-3.8-0.8
				c0.3-2.5,2.5-5.2,6.7-5.2c5,0,6.8,2.8,6.8,6v7.7c0,0.8,0.1,1.9,0.2,2.5h-3.9c-0.1-0.4-0.2-1.3-0.2-1.9c-0.8,1.2-2.3,2.3-4.6,2.3
				c-3.4,0-5.4-2.3-5.4-4.7C488.2,131.8,490.2,130.2,492.9,129.9z M497.9,132.5v-0.7l-3.5,0.5c-1.1,0.2-1.9,0.8-1.9,2
				c0,0.9,0.7,1.8,2,1.8C496.2,136.2,497.9,135.3,497.9,132.5z"/>
			<path class="st0" d="M515.9,127.4c-0.5-0.1-0.9-0.1-1.3-0.1c-2.2,0-4.1,1.1-4.1,4.4v7.2h-4.2v-15.7h4.1v2.3
				c1-2.1,3.1-2.5,4.5-2.5c0.4,0,0.7,0,1,0.1V127.4z"/>
			<path class="st0" d="M533.7,136.1c0,1.1,0.1,2.2,0.1,2.8h-4.1c-0.1-0.3-0.2-1.1-0.2-1.8c-0.7,1.2-2.3,2.2-4.4,2.2
				c-4.5,0-7.7-3.5-7.7-8.3c0-4.6,3.1-8.2,7.5-8.2c2.7,0,4,1.1,4.4,1.9v-9h4.2V136.1z M525.7,135.5c2.2,0,3.9-1.7,3.9-4.5
				c0-2.8-1.7-4.4-3.9-4.4s-3.9,1.6-3.9,4.4C521.8,133.8,523.5,135.5,525.7,135.5z"/>
			<path class="st0" d="M540.6,133.7c0.1,1.2,1,2.4,2.9,2.4c1.4,0,2.1-0.7,2.1-1.6c0-0.7-0.5-1.3-1.7-1.5l-2.1-0.5
				c-3-0.7-4.4-2.5-4.4-4.7c0-2.8,2.5-5.1,5.9-5.1c4.5,0,6,2.8,6.2,4.5l-3.5,0.8c-0.1-0.9-0.8-2.1-2.6-2.1c-1.1,0-2,0.7-2,1.6
				c0,0.8,0.6,1.2,1.4,1.4l2.2,0.5c3.1,0.6,4.7,2.5,4.7,4.8c0,2.6-2,5.2-6.1,5.2c-4.7,0-6.4-3.1-6.5-4.9L540.6,133.7z"/>
			<path class="st0" d="M651.5,126.1c-0.1-0.3-0.2-0.9-0.2-1.4c0-3.6,2.7-6.9,7.6-6.9c4.6,0,7.5,3.1,7.5,6.7c0,2.7-1.5,4.9-4,6.4
				l-4,2.4c-0.8,0.5-1.5,1.1-1.8,1.9h9.9v3.8h-15.3c0-3.6,1.2-6.6,4.9-8.8l3.4-2c1.8-1.1,2.5-2.1,2.5-3.6c0-1.5-1.1-2.8-3.1-2.8
				c-2.2,0-3.3,1.5-3.3,3.4c0,0.4,0.1,0.8,0.2,1.2L651.5,126.1z"/>
			<path class="st0" d="M670.6,121.2c1.4-2,3.6-3.5,6.8-3.5s5.5,1.4,6.8,3.5c1.4,2.1,1.9,4.7,1.9,7.4c0,2.7-0.4,5.2-1.9,7.4
				c-1.3,2-3.6,3.5-6.8,3.5s-5.5-1.4-6.8-3.5c-1.4-2.1-1.8-4.7-1.8-7.4C668.8,125.9,669.2,123.3,670.6,121.2z M674.3,133.8
				c0.6,1,1.6,1.7,3.1,1.7c1.5,0,2.5-0.7,3.1-1.7c0.8-1.2,1.1-3.1,1.1-5.3c0-2.2-0.3-4-1.1-5.3c-0.6-1-1.6-1.7-3.1-1.7
				c-1.5,0-2.5,0.7-3.1,1.7c-0.8,1.2-1.1,3.1-1.1,5.3C673.2,130.7,673.5,132.6,674.3,133.8z"/>
			<path class="st0" d="M717,138.9V125h-5v-3c3,0,5.1-1.7,5.6-3.9h3.8v20.7H717z"/>
			<path class="st0" d="M740,121.8c-1.6,1.3-7.4,6.6-8.3,17.1h-4.6C728,127.7,735,122,735,122h-10.7v-3.8H740V121.8z"/>
		</g>
	</g>
	<g class="st13">
		<path class="st2" d="M362.1,102.2h-27.2h-1.3h-27.6v80.6l25.8-20.5c1.4-1.1,3.5-1.1,4.9,0l25.4,20.5V102.2z"/>
		<circle class="st22" cx="334.5" cy="72.1" r="50.5"/>
		<g>
			<path class="st23" d="M290,74.3c0-0.7,0-1.3,0-2c0-24.9,20.2-45,45-45c18.6,0,34.6,11.3,41.5,27.5"/>
			<path class="st23" d="M291.3,85.7c5.7,18.3,22.8,31.7,43,31.7c20,0,37-13.1,42.8-31.1"/>
		</g>
		<g>
			<path class="st22" d="M296.8,88.2c3.4,8,9.3,14.9,17.1,19.4c3,1.7,6.2,3.1,9.6,4c3.3,0.9,6.7,1.4,10,1.5c0.4,0,0.9,0,1.3,0
				c7.2-0.1,14.1-2,20.2-5.5c7.5-4.3,13.6-11,17.1-19.4"/>
			<path class="st22" d="M293.5,74.2c-0.2-4.3,0.2-8.6,1.4-13c4.5-16.3,18.3-27.6,34.1-29.6"/>
			<path class="st22" d="M367,47.5c5.7,7.5,8.8,17,8.3,26.7"/>
			<path class="st22" d="M334.7,31.2c2.9,0.1,5.8,0.5,8.6,1.2"/>
		</g>
		<line class="st22" x1="318.2" y1="90.4" x2="306.4" y2="90.4"/>
		<line class="st22" x1="364.2" y1="90.8" x2="352.6" y2="90.8"/>
		<g>
			<g>
				<path class="st0" d="M325.2,93.1v-3.8l-1.6,3.8h-0.9l-1.6-3.8v3.8h-1v-5.4h1.4l1.6,3.9l1.6-3.9h1.4v5.4H325.2z"/>
				<path class="st0" d="M328.3,91l0.9-0.1c0.2,0,0.3-0.1,0.3-0.3c0-0.3-0.2-0.5-0.6-0.5c-0.4,0-0.7,0.3-0.7,0.6l-0.9-0.2
					c0.1-0.6,0.6-1.2,1.6-1.2c1.2,0,1.6,0.7,1.6,1.4v1.9c0,0.2,0,0.5,0,0.6h-0.9c0-0.1,0-0.3,0-0.5c-0.2,0.3-0.6,0.6-1.1,0.6
					c-0.8,0-1.3-0.5-1.3-1.1C327.2,91.4,327.7,91.1,328.3,91z M329.5,91.6v-0.2l-0.8,0.1c-0.3,0-0.5,0.2-0.5,0.5
					c0,0.2,0.2,0.4,0.5,0.4C329.1,92.5,329.5,92.3,329.5,91.6z"/>
				<path class="st0" d="M331.5,93.1v-5.5h1v5.5H331.5z"/>
				<path class="st0" d="M334.5,91l0.9-0.1c0.2,0,0.3-0.1,0.3-0.3c0-0.3-0.2-0.5-0.6-0.5c-0.4,0-0.7,0.3-0.7,0.6l-0.9-0.2
					c0.1-0.6,0.6-1.2,1.6-1.2c1.2,0,1.6,0.7,1.6,1.4v1.9c0,0.2,0,0.5,0,0.6h-0.9c0-0.1,0-0.3,0-0.5c-0.2,0.3-0.6,0.6-1.1,0.6
					c-0.8,0-1.3-0.5-1.3-1.1C333.4,91.4,333.9,91.1,334.5,91z M335.7,91.6v-0.2l-0.8,0.1c-0.3,0-0.5,0.2-0.5,0.5
					c0,0.2,0.2,0.4,0.5,0.4C335.3,92.5,335.7,92.3,335.7,91.6z"/>
				<path class="st0" d="M337.9,94.6l0.9-2l-1.6-3.3h1.1l1,2.2l0.9-2.2h1.1l-2.4,5.2H337.9z"/>
				<path class="st0" d="M342.4,91.9c0,0.3,0.2,0.6,0.7,0.6c0.3,0,0.5-0.2,0.5-0.4c0-0.2-0.1-0.3-0.4-0.4l-0.5-0.1
					c-0.7-0.2-1.1-0.6-1.1-1.1c0-0.7,0.6-1.2,1.4-1.2c1.1,0,1.4,0.7,1.5,1.1l-0.8,0.2c0-0.2-0.2-0.5-0.6-0.5c-0.3,0-0.5,0.2-0.5,0.4
					c0,0.2,0.1,0.3,0.3,0.3l0.5,0.1c0.7,0.2,1.1,0.6,1.1,1.2c0,0.6-0.5,1.2-1.5,1.2c-1.1,0-1.5-0.7-1.6-1.2L342.4,91.9z"/>
				<path class="st0" d="M345.9,87.5c0.4,0,0.6,0.3,0.6,0.6c0,0.3-0.3,0.6-0.6,0.6c-0.3,0-0.6-0.3-0.6-0.6
					C345.3,87.8,345.5,87.5,345.9,87.5z M345.4,93.1v-3.8h1v3.8H345.4z"/>
				<path class="st0" d="M348.4,91l0.9-0.1c0.2,0,0.3-0.1,0.3-0.3c0-0.3-0.2-0.5-0.6-0.5c-0.4,0-0.7,0.3-0.7,0.6l-0.9-0.2
					c0.1-0.6,0.6-1.2,1.6-1.2c1.2,0,1.6,0.7,1.6,1.4v1.9c0,0.2,0,0.5,0,0.6h-0.9c0-0.1,0-0.3,0-0.5c-0.2,0.3-0.6,0.6-1.1,0.6
					c-0.8,0-1.3-0.5-1.3-1.1C347.3,91.4,347.8,91.1,348.4,91z M349.6,91.6v-0.2l-0.8,0.1c-0.3,0-0.5,0.2-0.5,0.5
					c0,0.2,0.2,0.4,0.5,0.4C349.2,92.5,349.6,92.3,349.6,91.6z"/>
			</g>
		</g>
		<g>
			<path class="st0" d="M307.3,50.3c1.1,0,2,0.9,2,2c0,1.1-0.9,2-2,2c-1.1,0-2-0.9-2-2C305.3,51.2,306.2,50.3,307.3,50.3z
				 M305.7,68.2v-12h3.2v12H305.7z"/>
			<path class="st0" d="M312.6,68.2V50.9h10.8v3.2H316V58h6.7v3H316v4h7.4v3.2H312.6z"/>
			<path class="st0" d="M342.7,68.2V56.1l-5,12.1H335l-5-12v12h-3.2V50.9h4.4l5.2,12.5l5.1-12.5h4.6v17.3H342.7z"/>
			<path class="st0" d="M360.3,64.2h-7l-1.4,3.9h-3.6l6.6-17.3h3.9l6.6,17.3h-3.7L360.3,64.2z M354.4,61.2h4.8l-2.4-6.5L354.4,61.2z
				"/>
			<path class="st0" d="M320.2,76c0-0.1-0.1-0.4-0.1-0.7c0-1.7,1.3-3.2,3.5-3.2c2.1,0,3.4,1.4,3.4,3.1c0,1.2-0.7,2.2-1.8,2.9
				l-1.8,1.1c-0.4,0.2-0.7,0.5-0.8,0.9h4.6v1.7h-7c0-1.7,0.5-3,2.2-4.1l1.6-0.9c0.8-0.5,1.1-1,1.1-1.6c0-0.7-0.5-1.3-1.4-1.3
				c-1,0-1.5,0.7-1.5,1.6c0,0.2,0,0.4,0.1,0.5L320.2,76z"/>
			<path class="st0" d="M329,73.7c0.6-0.9,1.7-1.6,3.1-1.6c1.5,0,2.5,0.7,3.1,1.6c0.6,1,0.9,2.2,0.9,3.4c0,1.2-0.2,2.4-0.9,3.4
				c-0.6,0.9-1.6,1.6-3.1,1.6c-1.5,0-2.5-0.7-3.1-1.6c-0.6-1-0.8-2.2-0.8-3.4C328.2,75.9,328.3,74.7,329,73.7z M330.7,79.5
				c0.3,0.5,0.7,0.8,1.4,0.8c0.7,0,1.1-0.3,1.4-0.8c0.4-0.6,0.5-1.4,0.5-2.4c0-1-0.1-1.8-0.5-2.4c-0.3-0.5-0.7-0.8-1.4-0.8
				c-0.7,0-1.1,0.3-1.4,0.8c-0.4,0.6-0.5,1.4-0.5,2.4C330.2,78.1,330.3,79,330.7,79.5z"/>
			<path class="st0" d="M339.3,81.9v-6.4H337v-1.4c1.4,0,2.4-0.8,2.6-1.8h1.7v9.5H339.3z"/>
			<path class="st0" d="M349.9,74c-0.7,0.6-3.4,3-3.8,7.8H344c0.4-5.1,3.6-7.8,3.6-7.8h-4.9v-1.7h7.2V74z"/>
		</g>
		<path class="st22" d="M289.9,78.5c0,0-0.9,13.9,14.9,27.9"/>
		<path class="st22" d="M377.5,58.3c0,0,5.2,17-2.2,32.6"/>
		<path class="st25" d="M348,33.4c0,0,9.5,2.9,16.3,10.7"/>
	</g>
	<rect style="clip-path:url(#SVGID_4_);fill:none;" width="1024" height="300"/>
</g>
</svg>
